<mxfile host="Electron" agent="Mozilla/5.0 (X11; Linux x86_64) AppleWebKit/537.36 (KHTML, like Gecko) draw.io/26.1.1 Chrome/132.0.6834.210 Electron/34.3.2 Safari/537.36" version="26.1.1">
  <diagram name="Page-1" id="th1DU-0Bx85E5-e-rV88">
    <mxGraphModel dx="3241" dy="3265" grid="1" gridSize="10" guides="1" tooltips="1" connect="1" arrows="1" fold="1" page="1" pageScale="1" pageWidth="850" pageHeight="1100" math="0" shadow="0">
      <root>
        <mxCell id="0" />
        <mxCell id="1" parent="0" />
        <UserObject label="" mermaidData="{&#xa;  &quot;data&quot;: &quot;%%{ init: { &#39;theme&#39;: &#39;base&#39;, &#39;themeVariables&#39;: { &#39;primaryColor&#39;: &#39;#F8F8F2&#39;, &#39;primaryTextColor&#39;: &#39;#282A36&#39;, &#39;lineColor&#39;: &#39;#44475A&#39;, &#39;textColor&#39;: &#39;#6272A4&#39;, &#39;actorBorder&#39;: &#39;#BD93F9&#39;}}}%%\ngraph TD\n    subgraph \&quot;User Browser\&quot;\n        direction LR\n        ClientApp[React App]\n    end\n\n    subgraph \&quot;Web Server (Actix Web)\&quot;\n        direction TB\n        LB_Web[Load Balancer / Entry] --&gt; WebServerMain[HTTP Server: main.rs]\n        WebServerMain -- Serves --&gt; ClientApp\n        WebServerMain -- Route /ws/{client_id} --&gt; ProxyActor[ProxyActor: proxy.rs]\n        WebServerMain -- Route /api --&gt; ApiHandlers[API Handlers: main.rs]\n        StaticServer[Static Files: static_files.rs] -- Serves Assets --&gt; ClientApp\n        WebServerMain -- Uses --&gt; StaticServer\n    end\n\n    subgraph \&quot;WebSocket Server (Actix + Actix Web)\&quot;\n        direction TB\n        LB_WS[Load Balancer / Entry] --&gt; WSServerMain[WebSocket Server: main.rs]\n        WSServerMain -- Route /ws/client/{client_id} --&gt; ClientSessionActor[ClientSessionActor]\n        WSServerMain -- Route /ws/agent --&gt; AgentActor[AgentActor]\n\n        subgraph \&quot;Core Actors\&quot;\n            direction TB\n            StateManager[StateManagerActor]\n            Router[RouterActor]\n        end\n\n        WSServerMain -- Spawns &amp; Provides Addr --&gt; StateManager\n        WSServerMain -- Spawns &amp; Provides Addr --&gt; Router\n        StateManager -- Provides Addr --&gt; WSServerMain\n\n        ClientSessionActor -- Register/Unregister --&gt; StateManager\n        ClientSessionActor -- Update State/Activity --&gt; StateManager\n        ClientSessionActor -- Save/Get Session --&gt; StateManager\n        ClientSessionActor -- Update Metrics --&gt; StateManager\n        ClientSessionActor -- Register/Unregister --&gt; Router\n        ClientSessionActor -- Sends ClientMessage --&gt; Router\n        Router -- Sends ClientActorMessage (JSON String) --&gt; ClientSessionActor\n\n        AgentActor -- Register/Unregister --&gt; StateManager\n        AgentActor -- Update State/Activity --&gt; StateManager\n        AgentActor -- Update Metrics --&gt; StateManager\n        AgentActor -- Register/Unregister --&gt; Router\n        Router -- Sends AgentActorMessage (JSON String) --&gt; AgentActor\n        AgentActor -- Sends AgentMessage --&gt; Router\n\n        StateManager -- Notifies (Client/Agent Disconnected) --&gt; Router\n        Router -- Forwards SystemMessage --&gt; AgentActor\n    end\n\n    subgraph \&quot;Backend Agent System\&quot;\n        AgentSystem[Agent Logic]\n    end\n\n    ClientApp -- WebSocket --&gt; ProxyActor\n    ProxyActor -- WebSocket (Proxied) --&gt; WSServerMain\n    AgentSystem -- WebSocket --&gt; WSServerMain\n\n    %% Styling\n    classDef actor fill:#f9f,stroke:#333,stroke-width:2px;\n    class ClientSessionActor,AgentActor,StateManager,Router,ProxyActor actor;\n    classDef web fill:#ccf,stroke:#333,stroke-width:2px;\n    class WebServerMain,WSServerMain,StaticServer,ApiHandlers web;\n    classDef client fill:#cfc,stroke:#333,stroke-width:2px;\n    class ClientApp client;\n    classDef agent fill:#fcc,stroke:#333,stroke-width:2px;\n    class AgentSystem agent;\n\n&quot;&#xa;}" id="U5LU6IOfDwpIuHPCAuLH-1">
          <mxCell style="shape=image;noLabel=1;verticalAlign=top;imageAspect=1;image=data:image/svg+xml,PHN2ZyBhcmlhLXJvbGVkZXNjcmlwdGlvbj0iZmxvd2NoYXJ0LXYyIiByb2xlPSJncmFwaGljcy1kb2N1bWVudCBkb2N1bWVudCIgdmlld0JveD0iMCAwIDMyMzIuMzUxNTYyNSAxNDI4LjgwMDA0ODgyODEyNSIgc3R5bGU9Im1heC13aWR0aDogMzIzMi4zNTE1NjI1cHg7IiBjbGFzcz0iZmxvd2NoYXJ0IiB4bWxucz0iaHR0cDovL3d3dy53My5vcmcvMjAwMC9zdmciIHdpZHRoPSIxMDAlIiBpZD0iZ2VNZXJtYWlkT3V0cHV0LTE3NDM3MjYyMDcxMDIiPjxzdHlsZT4jZ2VNZXJtYWlkT3V0cHV0LTE3NDM3MjYyMDcxMDJ7Zm9udC1mYW1pbHk6InRyZWJ1Y2hldCBtcyIsdmVyZGFuYSxhcmlhbCxzYW5zLXNlcmlmO2ZvbnQtc2l6ZToxNnB4O2ZpbGw6IzYyNzJBNDt9I2dlTWVybWFpZE91dHB1dC0xNzQzNzI2MjA3MTAyIC5lcnJvci1pY29ue2ZpbGw6aHNsKDI0MCwgMzAlLCAxMDAlKTt9I2dlTWVybWFpZE91dHB1dC0xNzQzNzI2MjA3MTAyIC5lcnJvci10ZXh0e2ZpbGw6IzAwMDAwMDtzdHJva2U6IzAwMDAwMDt9I2dlTWVybWFpZE91dHB1dC0xNzQzNzI2MjA3MTAyIC5lZGdlLXRoaWNrbmVzcy1ub3JtYWx7c3Ryb2tlLXdpZHRoOjFweDt9I2dlTWVybWFpZE91dHB1dC0xNzQzNzI2MjA3MTAyIC5lZGdlLXRoaWNrbmVzcy10aGlja3tzdHJva2Utd2lkdGg6My41cHg7fSNnZU1lcm1haWRPdXRwdXQtMTc0MzcyNjIwNzEwMiAuZWRnZS1wYXR0ZXJuLXNvbGlke3N0cm9rZS1kYXNoYXJyYXk6MDt9I2dlTWVybWFpZE91dHB1dC0xNzQzNzI2MjA3MTAyIC5lZGdlLXRoaWNrbmVzcy1pbnZpc2libGV7c3Ryb2tlLXdpZHRoOjA7ZmlsbDpub25lO30jZ2VNZXJtYWlkT3V0cHV0LTE3NDM3MjYyMDcxMDIgLmVkZ2UtcGF0dGVybi1kYXNoZWR7c3Ryb2tlLWRhc2hhcnJheTozO30jZ2VNZXJtYWlkT3V0cHV0LTE3NDM3MjYyMDcxMDIgLmVkZ2UtcGF0dGVybi1kb3R0ZWR7c3Ryb2tlLWRhc2hhcnJheToyO30jZ2VNZXJtYWlkT3V0cHV0LTE3NDM3MjYyMDcxMDIgLm1hcmtlcntmaWxsOiM0NDQ3NUE7c3Ryb2tlOiM0NDQ3NUE7fSNnZU1lcm1haWRPdXRwdXQtMTc0MzcyNjIwNzEwMiAubWFya2VyLmNyb3Nze3N0cm9rZTojNDQ0NzVBO30jZ2VNZXJtYWlkT3V0cHV0LTE3NDM3MjYyMDcxMDIgc3Zne2ZvbnQtZmFtaWx5OiJ0cmVidWNoZXQgbXMiLHZlcmRhbmEsYXJpYWwsc2Fucy1zZXJpZjtmb250LXNpemU6MTZweDt9I2dlTWVybWFpZE91dHB1dC0xNzQzNzI2MjA3MTAyIHB7bWFyZ2luOjA7fSNnZU1lcm1haWRPdXRwdXQtMTc0MzcyNjIwNzEwMiAubGFiZWx7Zm9udC1mYW1pbHk6InRyZWJ1Y2hldCBtcyIsdmVyZGFuYSxhcmlhbCxzYW5zLXNlcmlmO2NvbG9yOiMyODJBMzY7fSNnZU1lcm1haWRPdXRwdXQtMTc0MzcyNjIwNzEwMiAuY2x1c3Rlci1sYWJlbCB0ZXh0e2ZpbGw6IzAwMDAwMDt9I2dlTWVybWFpZE91dHB1dC0xNzQzNzI2MjA3MTAyIC5jbHVzdGVyLWxhYmVsIHNwYW57Y29sb3I6IzAwMDAwMDt9I2dlTWVybWFpZE91dHB1dC0xNzQzNzI2MjA3MTAyIC5jbHVzdGVyLWxhYmVsIHNwYW4gcHtiYWNrZ3JvdW5kLWNvbG9yOnRyYW5zcGFyZW50O30jZ2VNZXJtYWlkT3V0cHV0LTE3NDM3MjYyMDcxMDIgLmxhYmVsIHRleHQsI2dlTWVybWFpZE91dHB1dC0xNzQzNzI2MjA3MTAyIHNwYW57ZmlsbDojMjgyQTM2O2NvbG9yOiMyODJBMzY7fSNnZU1lcm1haWRPdXRwdXQtMTc0MzcyNjIwNzEwMiAubm9kZSByZWN0LCNnZU1lcm1haWRPdXRwdXQtMTc0MzcyNjIwNzEwMiAubm9kZSBjaXJjbGUsI2dlTWVybWFpZE91dHB1dC0xNzQzNzI2MjA3MTAyIC5ub2RlIGVsbGlwc2UsI2dlTWVybWFpZE91dHB1dC0xNzQzNzI2MjA3MTAyIC5ub2RlIHBvbHlnb24sI2dlTWVybWFpZE91dHB1dC0xNzQzNzI2MjA3MTAyIC5ub2RlIHBhdGh7ZmlsbDojRjhGOEYyO3N0cm9rZTpoc2woNjAsIDAlLCA4Ni4wNzg0MzEzNzI1JSk7c3Ryb2tlLXdpZHRoOjFweDt9I2dlTWVybWFpZE91dHB1dC0xNzQzNzI2MjA3MTAyIC5yb3VnaC1ub2RlIC5sYWJlbCB0ZXh0LCNnZU1lcm1haWRPdXRwdXQtMTc0MzcyNjIwNzEwMiAubm9kZSAubGFiZWwgdGV4dCwjZ2VNZXJtYWlkT3V0cHV0LTE3NDM3MjYyMDcxMDIgLmltYWdlLXNoYXBlIC5sYWJlbCwjZ2VNZXJtYWlkT3V0cHV0LTE3NDM3MjYyMDcxMDIgLmljb24tc2hhcGUgLmxhYmVse3RleHQtYW5jaG9yOm1pZGRsZTt9I2dlTWVybWFpZE91dHB1dC0xNzQzNzI2MjA3MTAyIC5ub2RlIC5rYXRleCBwYXRoe2ZpbGw6IzAwMDtzdHJva2U6IzAwMDtzdHJva2Utd2lkdGg6MXB4O30jZ2VNZXJtYWlkT3V0cHV0LTE3NDM3MjYyMDcxMDIgLnJvdWdoLW5vZGUgLmxhYmVsLCNnZU1lcm1haWRPdXRwdXQtMTc0MzcyNjIwNzEwMiAubm9kZSAubGFiZWwsI2dlTWVybWFpZE91dHB1dC0xNzQzNzI2MjA3MTAyIC5pbWFnZS1zaGFwZSAubGFiZWwsI2dlTWVybWFpZE91dHB1dC0xNzQzNzI2MjA3MTAyIC5pY29uLXNoYXBlIC5sYWJlbHt0ZXh0LWFsaWduOmNlbnRlcjt9I2dlTWVybWFpZE91dHB1dC0xNzQzNzI2MjA3MTAyIC5ub2RlLmNsaWNrYWJsZXtjdXJzb3I6cG9pbnRlcjt9I2dlTWVybWFpZE91dHB1dC0xNzQzNzI2MjA3MTAyIC5yb290IC5hbmNob3IgcGF0aHtmaWxsOiM0NDQ3NUEhaW1wb3J0YW50O3N0cm9rZS13aWR0aDowO3N0cm9rZTojNDQ0NzVBO30jZ2VNZXJtYWlkT3V0cHV0LTE3NDM3MjYyMDcxMDIgLmFycm93aGVhZFBhdGh7ZmlsbDojMGIwYjBiO30jZ2VNZXJtYWlkT3V0cHV0LTE3NDM3MjYyMDcxMDIgLmVkZ2VQYXRoIC5wYXRoe3N0cm9rZTojNDQ0NzVBO3N0cm9rZS13aWR0aDoyLjBweDt9I2dlTWVybWFpZE91dHB1dC0xNzQzNzI2MjA3MTAyIC5mbG93Y2hhcnQtbGlua3tzdHJva2U6IzQ0NDc1QTtmaWxsOm5vbmU7fSNnZU1lcm1haWRPdXRwdXQtMTc0MzcyNjIwNzEwMiAuZWRnZUxhYmVse2JhY2tncm91bmQtY29sb3I6aHNsKC02MCwgMzAlLCA5Ni4wNzg0MzEzNzI1JSk7dGV4dC1hbGlnbjpjZW50ZXI7fSNnZU1lcm1haWRPdXRwdXQtMTc0MzcyNjIwNzEwMiAuZWRnZUxhYmVsIHB7YmFja2dyb3VuZC1jb2xvcjpoc2woLTYwLCAzMCUsIDk2LjA3ODQzMTM3MjUlKTt9I2dlTWVybWFpZE91dHB1dC0xNzQzNzI2MjA3MTAyIC5lZGdlTGFiZWwgcmVjdHtvcGFjaXR5OjAuNTtiYWNrZ3JvdW5kLWNvbG9yOmhzbCgtNjAsIDMwJSwgOTYuMDc4NDMxMzcyNSUpO2ZpbGw6aHNsKC02MCwgMzAlLCA5Ni4wNzg0MzEzNzI1JSk7fSNnZU1lcm1haWRPdXRwdXQtMTc0MzcyNjIwNzEwMiAubGFiZWxCa2d7YmFja2dyb3VuZC1jb2xvcjpyZ2JhKDI0Ny45OTk5OTk5OTk5LCAyNDEuOTk5OTk5OTk5OCwgMjQ3Ljk5OTk5OTk5OTksIDAuNSk7fSNnZU1lcm1haWRPdXRwdXQtMTc0MzcyNjIwNzEwMiAuY2x1c3RlciByZWN0e2ZpbGw6aHNsKDI0MCwgMzAlLCAxMDAlKTtzdHJva2U6aHNsKDI0MCwgMCUsIDkwJSk7c3Ryb2tlLXdpZHRoOjFweDt9I2dlTWVybWFpZE91dHB1dC0xNzQzNzI2MjA3MTAyIC5jbHVzdGVyIHRleHR7ZmlsbDojMDAwMDAwO30jZ2VNZXJtYWlkT3V0cHV0LTE3NDM3MjYyMDcxMDIgLmNsdXN0ZXIgc3Bhbntjb2xvcjojMDAwMDAwO30jZ2VNZXJtYWlkT3V0cHV0LTE3NDM3MjYyMDcxMDIgZGl2Lm1lcm1haWRUb29sdGlwe3Bvc2l0aW9uOmFic29sdXRlO3RleHQtYWxpZ246Y2VudGVyO21heC13aWR0aDoyMDBweDtwYWRkaW5nOjJweDtmb250LWZhbWlseToidHJlYnVjaGV0IG1zIix2ZXJkYW5hLGFyaWFsLHNhbnMtc2VyaWY7Zm9udC1zaXplOjEycHg7YmFja2dyb3VuZDpoc2woMjQwLCAzMCUsIDEwMCUpO2JvcmRlcjoxcHggc29saWQgaHNsKDI0MCwgMCUsIDkwJSk7Ym9yZGVyLXJhZGl1czoycHg7cG9pbnRlci1ldmVudHM6bm9uZTt6LWluZGV4OjEwMDt9I2dlTWVybWFpZE91dHB1dC0xNzQzNzI2MjA3MTAyIC5mbG93Y2hhcnRUaXRsZVRleHR7dGV4dC1hbmNob3I6bWlkZGxlO2ZvbnQtc2l6ZToxOHB4O2ZpbGw6IzYyNzJBNDt9I2dlTWVybWFpZE91dHB1dC0xNzQzNzI2MjA3MTAyIHJlY3QudGV4dHtmaWxsOm5vbmU7c3Ryb2tlLXdpZHRoOjA7fSNnZU1lcm1haWRPdXRwdXQtMTc0MzcyNjIwNzEwMiAuaWNvbi1zaGFwZSwjZ2VNZXJtYWlkT3V0cHV0LTE3NDM3MjYyMDcxMDIgLmltYWdlLXNoYXBle2JhY2tncm91bmQtY29sb3I6aHNsKC02MCwgMzAlLCA5Ni4wNzg0MzEzNzI1JSk7dGV4dC1hbGlnbjpjZW50ZXI7fSNnZU1lcm1haWRPdXRwdXQtMTc0MzcyNjIwNzEwMiAuaWNvbi1zaGFwZSBwLCNnZU1lcm1haWRPdXRwdXQtMTc0MzcyNjIwNzEwMiAuaW1hZ2Utc2hhcGUgcHtiYWNrZ3JvdW5kLWNvbG9yOmhzbCgtNjAsIDMwJSwgOTYuMDc4NDMxMzcyNSUpO3BhZGRpbmc6MnB4O30jZ2VNZXJtYWlkT3V0cHV0LTE3NDM3MjYyMDcxMDIgLmljb24tc2hhcGUgcmVjdCwjZ2VNZXJtYWlkT3V0cHV0LTE3NDM3MjYyMDcxMDIgLmltYWdlLXNoYXBlIHJlY3R7b3BhY2l0eTowLjU7YmFja2dyb3VuZC1jb2xvcjpoc2woLTYwLCAzMCUsIDk2LjA3ODQzMTM3MjUlKTtmaWxsOmhzbCgtNjAsIDMwJSwgOTYuMDc4NDMxMzcyNSUpO30jZ2VNZXJtYWlkT3V0cHV0LTE3NDM3MjYyMDcxMDIgOnJvb3R7LS1tZXJtYWlkLWZvbnQtZmFtaWx5OiJ0cmVidWNoZXQgbXMiLHZlcmRhbmEsYXJpYWwsc2Fucy1zZXJpZjt9I2dlTWVybWFpZE91dHB1dC0xNzQzNzI2MjA3MTAyIC5hY3RvciByZWN0e2ZpbGw6I2Y5ZiFpbXBvcnRhbnQ7c3Ryb2tlOiMzMzMhaW1wb3J0YW50O3N0cm9rZS13aWR0aDoycHghaW1wb3J0YW50O30jZ2VNZXJtYWlkT3V0cHV0LTE3NDM3MjYyMDcxMDIgLmFjdG9yIHBvbHlnb257ZmlsbDojZjlmIWltcG9ydGFudDtzdHJva2U6IzMzMyFpbXBvcnRhbnQ7c3Ryb2tlLXdpZHRoOjJweCFpbXBvcnRhbnQ7fSNnZU1lcm1haWRPdXRwdXQtMTc0MzcyNjIwNzEwMiAuYWN0b3IgZWxsaXBzZXtmaWxsOiNmOWYhaW1wb3J0YW50O3N0cm9rZTojMzMzIWltcG9ydGFudDtzdHJva2Utd2lkdGg6MnB4IWltcG9ydGFudDt9I2dlTWVybWFpZE91dHB1dC0xNzQzNzI2MjA3MTAyIC5hY3RvciBjaXJjbGV7ZmlsbDojZjlmIWltcG9ydGFudDtzdHJva2U6IzMzMyFpbXBvcnRhbnQ7c3Ryb2tlLXdpZHRoOjJweCFpbXBvcnRhbnQ7fSNnZU1lcm1haWRPdXRwdXQtMTc0MzcyNjIwNzEwMiAuYWN0b3IgcGF0aHtmaWxsOiNmOWYhaW1wb3J0YW50O3N0cm9rZTojMzMzIWltcG9ydGFudDtzdHJva2Utd2lkdGg6MnB4IWltcG9ydGFudDt9I2dlTWVybWFpZE91dHB1dC0xNzQzNzI2MjA3MTAyIC53ZWIgcmVjdHtmaWxsOiNjY2YhaW1wb3J0YW50O3N0cm9rZTojMzMzIWltcG9ydGFudDtzdHJva2Utd2lkdGg6MnB4IWltcG9ydGFudDt9I2dlTWVybWFpZE91dHB1dC0xNzQzNzI2MjA3MTAyIC53ZWIgcG9seWdvbntmaWxsOiNjY2YhaW1wb3J0YW50O3N0cm9rZTojMzMzIWltcG9ydGFudDtzdHJva2Utd2lkdGg6MnB4IWltcG9ydGFudDt9I2dlTWVybWFpZE91dHB1dC0xNzQzNzI2MjA3MTAyIC53ZWIgZWxsaXBzZXtmaWxsOiNjY2YhaW1wb3J0YW50O3N0cm9rZTojMzMzIWltcG9ydGFudDtzdHJva2Utd2lkdGg6MnB4IWltcG9ydGFudDt9I2dlTWVybWFpZE91dHB1dC0xNzQzNzI2MjA3MTAyIC53ZWIgY2lyY2xle2ZpbGw6I2NjZiFpbXBvcnRhbnQ7c3Ryb2tlOiMzMzMhaW1wb3J0YW50O3N0cm9rZS13aWR0aDoycHghaW1wb3J0YW50O30jZ2VNZXJtYWlkT3V0cHV0LTE3NDM3MjYyMDcxMDIgLndlYiBwYXRoe2ZpbGw6I2NjZiFpbXBvcnRhbnQ7c3Ryb2tlOiMzMzMhaW1wb3J0YW50O3N0cm9rZS13aWR0aDoycHghaW1wb3J0YW50O30jZ2VNZXJtYWlkT3V0cHV0LTE3NDM3MjYyMDcxMDIgLmNsaWVudCByZWN0e2ZpbGw6I2NmYyFpbXBvcnRhbnQ7c3Ryb2tlOiMzMzMhaW1wb3J0YW50O3N0cm9rZS13aWR0aDoycHghaW1wb3J0YW50O30jZ2VNZXJtYWlkT3V0cHV0LTE3NDM3MjYyMDcxMDIgLmNsaWVudCBwb2x5Z29ue2ZpbGw6I2NmYyFpbXBvcnRhbnQ7c3Ryb2tlOiMzMzMhaW1wb3J0YW50O3N0cm9rZS13aWR0aDoycHghaW1wb3J0YW50O30jZ2VNZXJtYWlkT3V0cHV0LTE3NDM3MjYyMDcxMDIgLmNsaWVudCBlbGxpcHNle2ZpbGw6I2NmYyFpbXBvcnRhbnQ7c3Ryb2tlOiMzMzMhaW1wb3J0YW50O3N0cm9rZS13aWR0aDoycHghaW1wb3J0YW50O30jZ2VNZXJtYWlkT3V0cHV0LTE3NDM3MjYyMDcxMDIgLmNsaWVudCBjaXJjbGV7ZmlsbDojY2ZjIWltcG9ydGFudDtzdHJva2U6IzMzMyFpbXBvcnRhbnQ7c3Ryb2tlLXdpZHRoOjJweCFpbXBvcnRhbnQ7fSNnZU1lcm1haWRPdXRwdXQtMTc0MzcyNjIwNzEwMiAuY2xpZW50IHBhdGh7ZmlsbDojY2ZjIWltcG9ydGFudDtzdHJva2U6IzMzMyFpbXBvcnRhbnQ7c3Ryb2tlLXdpZHRoOjJweCFpbXBvcnRhbnQ7fSNnZU1lcm1haWRPdXRwdXQtMTc0MzcyNjIwNzEwMiAuYWdlbnQgcmVjdHtmaWxsOiNmY2MhaW1wb3J0YW50O3N0cm9rZTojMzMzIWltcG9ydGFudDtzdHJva2Utd2lkdGg6MnB4IWltcG9ydGFudDt9I2dlTWVybWFpZE91dHB1dC0xNzQzNzI2MjA3MTAyIC5hZ2VudCBwb2x5Z29ue2ZpbGw6I2ZjYyFpbXBvcnRhbnQ7c3Ryb2tlOiMzMzMhaW1wb3J0YW50O3N0cm9rZS13aWR0aDoycHghaW1wb3J0YW50O30jZ2VNZXJtYWlkT3V0cHV0LTE3NDM3MjYyMDcxMDIgLmFnZW50IGVsbGlwc2V7ZmlsbDojZmNjIWltcG9ydGFudDtzdHJva2U6IzMzMyFpbXBvcnRhbnQ7c3Ryb2tlLXdpZHRoOjJweCFpbXBvcnRhbnQ7fSNnZU1lcm1haWRPdXRwdXQtMTc0MzcyNjIwNzEwMiAuYWdlbnQgY2lyY2xle2ZpbGw6I2ZjYyFpbXBvcnRhbnQ7c3Ryb2tlOiMzMzMhaW1wb3J0YW50O3N0cm9rZS13aWR0aDoycHghaW1wb3J0YW50O30jZ2VNZXJtYWlkT3V0cHV0LTE3NDM3MjYyMDcxMDIgLmFnZW50IHBhdGh7ZmlsbDojZmNjIWltcG9ydGFudDtzdHJva2U6IzMzMyFpbXBvcnRhbnQ7c3Ryb2tlLXdpZHRoOjJweCFpbXBvcnRhbnQ7fTwvc3R5bGU+PGc+PG1hcmtlciBvcmllbnQ9ImF1dG8iIG1hcmtlckhlaWdodD0iOCIgbWFya2VyV2lkdGg9IjgiIG1hcmtlclVuaXRzPSJ1c2VyU3BhY2VPblVzZSIgcmVmWT0iNSIgcmVmWD0iNSIgdmlld0JveD0iMCAwIDEwIDEwIiBjbGFzcz0ibWFya2VyIGZsb3djaGFydC12MiIgaWQ9ImdlTWVybWFpZE91dHB1dC0xNzQzNzI2MjA3MTAyX2Zsb3djaGFydC12Mi1wb2ludEVuZCI+PHBhdGggc3R5bGU9InN0cm9rZS13aWR0aDogMTsgc3Ryb2tlLWRhc2hhcnJheTogMSwgMDsiIGNsYXNzPSJhcnJvd01hcmtlclBhdGgiIGQ9Ik0gMCAwIEwgMTAgNSBMIDAgMTAgeiI+PC9wYXRoPjwvbWFya2VyPjxtYXJrZXIgb3JpZW50PSJhdXRvIiBtYXJrZXJIZWlnaHQ9IjgiIG1hcmtlcldpZHRoPSI4IiBtYXJrZXJVbml0cz0idXNlclNwYWNlT25Vc2UiIHJlZlk9IjUiIHJlZlg9IjQuNSIgdmlld0JveD0iMCAwIDEwIDEwIiBjbGFzcz0ibWFya2VyIGZsb3djaGFydC12MiIgaWQ9ImdlTWVybWFpZE91dHB1dC0xNzQzNzI2MjA3MTAyX2Zsb3djaGFydC12Mi1wb2ludFN0YXJ0Ij48cGF0aCBzdHlsZT0ic3Ryb2tlLXdpZHRoOiAxOyBzdHJva2UtZGFzaGFycmF5OiAxLCAwOyIgY2xhc3M9ImFycm93TWFya2VyUGF0aCIgZD0iTSAwIDUgTCAxMCAxMCBMIDEwIDAgeiI+PC9wYXRoPjwvbWFya2VyPjxtYXJrZXIgb3JpZW50PSJhdXRvIiBtYXJrZXJIZWlnaHQ9IjExIiBtYXJrZXJXaWR0aD0iMTEiIG1hcmtlclVuaXRzPSJ1c2VyU3BhY2VPblVzZSIgcmVmWT0iNSIgcmVmWD0iMTEiIHZpZXdCb3g9IjAgMCAxMCAxMCIgY2xhc3M9Im1hcmtlciBmbG93Y2hhcnQtdjIiIGlkPSJnZU1lcm1haWRPdXRwdXQtMTc0MzcyNjIwNzEwMl9mbG93Y2hhcnQtdjItY2lyY2xlRW5kIj48Y2lyY2xlIHN0eWxlPSJzdHJva2Utd2lkdGg6IDE7IHN0cm9rZS1kYXNoYXJyYXk6IDEsIDA7IiBjbGFzcz0iYXJyb3dNYXJrZXJQYXRoIiByPSI1IiBjeT0iNSIgY3g9IjUiPjwvY2lyY2xlPjwvbWFya2VyPjxtYXJrZXIgb3JpZW50PSJhdXRvIiBtYXJrZXJIZWlnaHQ9IjExIiBtYXJrZXJXaWR0aD0iMTEiIG1hcmtlclVuaXRzPSJ1c2VyU3BhY2VPblVzZSIgcmVmWT0iNSIgcmVmWD0iLTEiIHZpZXdCb3g9IjAgMCAxMCAxMCIgY2xhc3M9Im1hcmtlciBmbG93Y2hhcnQtdjIiIGlkPSJnZU1lcm1haWRPdXRwdXQtMTc0MzcyNjIwNzEwMl9mbG93Y2hhcnQtdjItY2lyY2xlU3RhcnQiPjxjaXJjbGUgc3R5bGU9InN0cm9rZS13aWR0aDogMTsgc3Ryb2tlLWRhc2hhcnJheTogMSwgMDsiIGNsYXNzPSJhcnJvd01hcmtlclBhdGgiIHI9IjUiIGN5PSI1IiBjeD0iNSI+PC9jaXJjbGU+PC9tYXJrZXI+PG1hcmtlciBvcmllbnQ9ImF1dG8iIG1hcmtlckhlaWdodD0iMTEiIG1hcmtlcldpZHRoPSIxMSIgbWFya2VyVW5pdHM9InVzZXJTcGFjZU9uVXNlIiByZWZZPSI1LjIiIHJlZlg9IjEyIiB2aWV3Qm94PSIwIDAgMTEgMTEiIGNsYXNzPSJtYXJrZXIgY3Jvc3MgZmxvd2NoYXJ0LXYyIiBpZD0iZ2VNZXJtYWlkT3V0cHV0LTE3NDM3MjYyMDcxMDJfZmxvd2NoYXJ0LXYyLWNyb3NzRW5kIj48cGF0aCBzdHlsZT0ic3Ryb2tlLXdpZHRoOiAyOyBzdHJva2UtZGFzaGFycmF5OiAxLCAwOyIgY2xhc3M9ImFycm93TWFya2VyUGF0aCIgZD0iTSAxLDEgbCA5LDkgTSAxMCwxIGwgLTksOSI+PC9wYXRoPjwvbWFya2VyPjxtYXJrZXIgb3JpZW50PSJhdXRvIiBtYXJrZXJIZWlnaHQ9IjExIiBtYXJrZXJXaWR0aD0iMTEiIG1hcmtlclVuaXRzPSJ1c2VyU3BhY2VPblVzZSIgcmVmWT0iNS4yIiByZWZYPSItMSIgdmlld0JveD0iMCAwIDExIDExIiBjbGFzcz0ibWFya2VyIGNyb3NzIGZsb3djaGFydC12MiIgaWQ9ImdlTWVybWFpZE91dHB1dC0xNzQzNzI2MjA3MTAyX2Zsb3djaGFydC12Mi1jcm9zc1N0YXJ0Ij48cGF0aCBzdHlsZT0ic3Ryb2tlLXdpZHRoOiAyOyBzdHJva2UtZGFzaGFycmF5OiAxLCAwOyIgY2xhc3M9ImFycm93TWFya2VyUGF0aCIgZD0iTSAxLDEgbCA5LDkgTSAxMCwxIGwgLTksOSI+PC9wYXRoPjwvbWFya2VyPjxnIGNsYXNzPSJyb290Ij48ZyBjbGFzcz0iY2x1c3RlcnMiPjxnIGRhdGEtbG9vaz0iY2xhc3NpYyIgaWQ9InN1YkdyYXBoNCIgY2xhc3M9ImNsdXN0ZXIiPjxyZWN0IGhlaWdodD0iMTA0IiB3aWR0aD0iMjE0LjUxNTYyNSIgeT0iNTYzIiB4PSIzMDA5LjgzNTkzNzUiIHN0eWxlPSIiPjwvcmVjdD48ZyB0cmFuc2Zvcm09InRyYW5zbGF0ZSgzMDM0LjM3NSwgNTYzKSIgY2xhc3M9ImNsdXN0ZXItbGFiZWwiPjxnPjxyZWN0IHN0eWxlPSJzdHJva2U6IG5vbmUiIGNsYXNzPSJiYWNrZ3JvdW5kIj48L3JlY3Q+PHRleHQgc3R5bGU9IiIgeT0iLTEwLjEiPjx0c3BhbiBkeT0iMS4xZW0iIHk9Ii0wLjFlbSIgeD0iMCIgY2xhc3M9InRleHQtb3V0ZXItdHNwYW4iPjx0c3BhbiBmb250LXdlaWdodD0ibm9ybWFsIiBjbGFzcz0idGV4dC1pbm5lci10c3BhbiIgZm9udC1zdHlsZT0ibm9ybWFsIj5CYWNrZW5kPC90c3Bhbj48dHNwYW4gZm9udC13ZWlnaHQ9Im5vcm1hbCIgY2xhc3M9InRleHQtaW5uZXItdHNwYW4iIGZvbnQtc3R5bGU9Im5vcm1hbCI+IEFnZW50PC90c3Bhbj48dHNwYW4gZm9udC13ZWlnaHQ9Im5vcm1hbCIgY2xhc3M9InRleHQtaW5uZXItdHNwYW4iIGZvbnQtc3R5bGU9Im5vcm1hbCI+IFN5c3RlbTwvdHNwYW4+PC90c3Bhbj48L3RleHQ+PC9nPjwvZz48L2c+PGcgZGF0YS1sb29rPSJjbGFzc2ljIiBpZD0ic3ViR3JhcGgzIiBjbGFzcz0iY2x1c3RlciI+PHJlY3QgaGVpZ2h0PSI4NTcuNzk5OTk1NDIyMzYzMyIgd2lkdGg9IjIyNDQuODk4NDM3NSIgeT0iNTYzIiB4PSI4IiBzdHlsZT0iIj48L3JlY3Q+PGcgdHJhbnNmb3JtPSJ0cmFuc2xhdGUoMTAzNC43Njk1MzEyNSwgNTYzKSIgY2xhc3M9ImNsdXN0ZXItbGFiZWwiPjxnPjxyZWN0IHN0eWxlPSJzdHJva2U6IG5vbmUiIGNsYXNzPSJiYWNrZ3JvdW5kIj48L3JlY3Q+PHRleHQgc3R5bGU9IiIgeT0iLTEwLjEiPjx0c3BhbiBkeT0iMS4xZW0iIHk9Ii0wLjFlbSIgeD0iMCIgY2xhc3M9InRleHQtb3V0ZXItdHNwYW4iPjx0c3BhbiBmb250LXdlaWdodD0ibm9ybWFsIiBjbGFzcz0idGV4dC1pbm5lci10c3BhbiIgZm9udC1zdHlsZT0ibm9ybWFsIj5XZWJTb2NrZXQ8L3RzcGFuPjx0c3BhbiBmb250LXdlaWdodD0ibm9ybWFsIiBjbGFzcz0idGV4dC1pbm5lci10c3BhbiIgZm9udC1zdHlsZT0ibm9ybWFsIj4gU2VydmVyPC90c3Bhbj48dHNwYW4gZm9udC13ZWlnaHQ9Im5vcm1hbCIgY2xhc3M9InRleHQtaW5uZXItdHNwYW4iIGZvbnQtc3R5bGU9Im5vcm1hbCI+IChBY3RpeDwvdHNwYW4+PHRzcGFuIGZvbnQtd2VpZ2h0PSJub3JtYWwiIGNsYXNzPSJ0ZXh0LWlubmVyLXRzcGFuIiBmb250LXN0eWxlPSJub3JtYWwiPiArPC90c3Bhbj48L3RzcGFuPjx0c3BhbiBkeT0iMS4xZW0iIHk9IjFlbSIgeD0iMCIgY2xhc3M9InRleHQtb3V0ZXItdHNwYW4iPjx0c3BhbiBmb250LXdlaWdodD0ibm9ybWFsIiBjbGFzcz0idGV4dC1pbm5lci10c3BhbiIgZm9udC1zdHlsZT0ibm9ybWFsIj5BY3RpeDwvdHNwYW4+PHRzcGFuIGZvbnQtd2VpZ2h0PSJub3JtYWwiIGNsYXNzPSJ0ZXh0LWlubmVyLXRzcGFuIiBmb250LXN0eWxlPSJub3JtYWwiPiBXZWIpPC90c3Bhbj48L3RzcGFuPjwvdGV4dD48L2c+PC9nPjwvZz48ZyBkYXRhLWxvb2s9ImNsYXNzaWMiIGlkPSJzdWJHcmFwaDEiIGNsYXNzPSJjbHVzdGVyIj48cmVjdCBoZWlnaHQ9IjY1OSIgd2lkdGg9IjcxNi45Mzc1IiB5PSI4IiB4PSIyMjcyLjg5ODQzNzUiIHN0eWxlPSIiPjwvcmVjdD48ZyB0cmFuc2Zvcm09InRyYW5zbGF0ZSgyNTQ1Ljg1MTU2MjUsIDgpIiBjbGFzcz0iY2x1c3Rlci1sYWJlbCI+PGc+PHJlY3Qgc3R5bGU9InN0cm9rZTogbm9uZSIgY2xhc3M9ImJhY2tncm91bmQiPjwvcmVjdD48dGV4dCBzdHlsZT0iIiB5PSItMTAuMSI+PHRzcGFuIGR5PSIxLjFlbSIgeT0iLTAuMWVtIiB4PSIwIiBjbGFzcz0idGV4dC1vdXRlci10c3BhbiI+PHRzcGFuIGZvbnQtd2VpZ2h0PSJub3JtYWwiIGNsYXNzPSJ0ZXh0LWlubmVyLXRzcGFuIiBmb250LXN0eWxlPSJub3JtYWwiPldlYjwvdHNwYW4+PHRzcGFuIGZvbnQtd2VpZ2h0PSJub3JtYWwiIGNsYXNzPSJ0ZXh0LWlubmVyLXRzcGFuIiBmb250LXN0eWxlPSJub3JtYWwiPiBTZXJ2ZXI8L3RzcGFuPjx0c3BhbiBmb250LXdlaWdodD0ibm9ybWFsIiBjbGFzcz0idGV4dC1pbm5lci10c3BhbiIgZm9udC1zdHlsZT0ibm9ybWFsIj4gKEFjdGl4PC90c3Bhbj48dHNwYW4gZm9udC13ZWlnaHQ9Im5vcm1hbCIgY2xhc3M9InRleHQtaW5uZXItdHNwYW4iIGZvbnQtc3R5bGU9Im5vcm1hbCI+IFdlYik8L3RzcGFuPjwvdHNwYW4+PC90ZXh0PjwvZz48L2c+PC9nPjxnIGRhdGEtbG9vaz0iY2xhc3NpYyIgaWQ9InN1YkdyYXBoMCIgY2xhc3M9ImNsdXN0ZXIiPjxyZWN0IGhlaWdodD0iMTA0IiB3aWR0aD0iMjAzLjgyODEyNSIgeT0iMzg4IiB4PSIzMDE1LjE3OTY4NzUiIHN0eWxlPSIiPjwvcmVjdD48ZyB0cmFuc2Zvcm09InRyYW5zbGF0ZSgzMDY4LjMwNDY4NzUsIDM4OCkiIGNsYXNzPSJjbHVzdGVyLWxhYmVsIj48Zz48cmVjdCBzdHlsZT0ic3Ryb2tlOiBub25lIiBjbGFzcz0iYmFja2dyb3VuZCI+PC9yZWN0Pjx0ZXh0IHN0eWxlPSIiIHk9Ii0xMC4xIj48dHNwYW4gZHk9IjEuMWVtIiB5PSItMC4xZW0iIHg9IjAiIGNsYXNzPSJ0ZXh0LW91dGVyLXRzcGFuIj48dHNwYW4gZm9udC13ZWlnaHQ9Im5vcm1hbCIgY2xhc3M9InRleHQtaW5uZXItdHNwYW4iIGZvbnQtc3R5bGU9Im5vcm1hbCI+VXNlcjwvdHNwYW4+PHRzcGFuIGZvbnQtd2VpZ2h0PSJub3JtYWwiIGNsYXNzPSJ0ZXh0LWlubmVyLXRzcGFuIiBmb250LXN0eWxlPSJub3JtYWwiPiBCcm93c2VyPC90c3Bhbj48L3RzcGFuPjwvdGV4dD48L2c+PC9nPjwvZz48ZyBkYXRhLWxvb2s9ImNsYXNzaWMiIGlkPSJzdWJHcmFwaDIiIGNsYXNzPSJjbHVzdGVyIj48cmVjdCBoZWlnaHQ9IjI0Ni41OTk5OTg0NzQxMjExIiB3aWR0aD0iMTk5Mi41ODIwMzEyNSIgeT0iMTAwNi41OTk5OTg0NzQxMjExIiB4PSIxODAuNDI5Njg3NSIgc3R5bGU9IiI+PC9yZWN0PjxnIHRyYW5zZm9ybT0idHJhbnNsYXRlKDExMzQuOTIzODI4MTI1LCAxMDA2LjU5OTk5ODQ3NDEyMTEpIiBjbGFzcz0iY2x1c3Rlci1sYWJlbCI+PGc+PHJlY3Qgc3R5bGU9InN0cm9rZTogbm9uZSIgY2xhc3M9ImJhY2tncm91bmQiPjwvcmVjdD48dGV4dCBzdHlsZT0iIiB5PSItMTAuMSI+PHRzcGFuIGR5PSIxLjFlbSIgeT0iLTAuMWVtIiB4PSIwIiBjbGFzcz0idGV4dC1vdXRlci10c3BhbiI+PHRzcGFuIGZvbnQtd2VpZ2h0PSJub3JtYWwiIGNsYXNzPSJ0ZXh0LWlubmVyLXRzcGFuIiBmb250LXN0eWxlPSJub3JtYWwiPkNvcmU8L3RzcGFuPjx0c3BhbiBmb250LXdlaWdodD0ibm9ybWFsIiBjbGFzcz0idGV4dC1pbm5lci10c3BhbiIgZm9udC1zdHlsZT0ibm9ybWFsIj4gQWN0b3JzPC90c3Bhbj48L3RzcGFuPjwvdGV4dD48L2c+PC9nPjwvZz48L2c+PGcgY2xhc3M9ImVkZ2VQYXRocyI+PHBhdGggbWFya2VyLWVuZD0idXJsKCNnZU1lcm1haWRPdXRwdXQtMTc0MzcyNjIwNzEwMl9mbG93Y2hhcnQtdjItcG9pbnRFbmQpIiBzdHlsZT0iIiBjbGFzcz0iZWRnZS10aGlja25lc3Mtbm9ybWFsIGVkZ2UtcGF0dGVybi1zb2xpZCBlZGdlLXRoaWNrbmVzcy1ub3JtYWwgZWRnZS1wYXR0ZXJuLXNvbGlkIGZsb3djaGFydC1saW5rIiBpZD0iTF9MQl9XZWJfV2ViU2VydmVyTWFpbl8wIiBkPSJNMjY0OS42NDEsODdMMjY0OS42NDEsOTEuMTY3QzI2NDkuNjQxLDk1LjMzMywyNjQ5LjY0MSwxMDMuNjY3LDI2NDkuNjQxLDExMS4zMzNDMjY0OS42NDEsMTE5LDI2NDkuNjQxLDEyNiwyNjQ5LjY0MSwxMjkuNUwyNjQ5LjY0MSwxMzMiPjwvcGF0aD48cGF0aCBtYXJrZXItZW5kPSJ1cmwoI2dlTWVybWFpZE91dHB1dC0xNzQzNzI2MjA3MTAyX2Zsb3djaGFydC12Mi1wb2ludEVuZCkiIHN0eWxlPSIiIGNsYXNzPSJlZGdlLXRoaWNrbmVzcy1ub3JtYWwgZWRnZS1wYXR0ZXJuLXNvbGlkIGVkZ2UtdGhpY2tuZXNzLW5vcm1hbCBlZGdlLXBhdHRlcm4tc29saWQgZmxvd2NoYXJ0LWxpbmsiIGlkPSJMX1dlYlNlcnZlck1haW5fQ2xpZW50QXBwXzEiIGQ9Ik0yNjUxLjIzNCwxOTFMMjY1MS41ODMsMTk2LjkxN0MyNjUxLjkzMiwyMDIuODMzLDI2NTIuNjMsMjE0LjY2NywyNjUyLjk3OSwyMzFDMjY1My4zMjgsMjQ3LjMzMywyNjUzLjMyOCwyNjguMTY3LDI2NTMuMzI4LDI4OS4wODNDMjY1My4zMjgsMzEwLDI2NTMuMzI4LDMzMSwyNjUzLjMyOCwzNDcuNUMyNjUzLjMyOCwzNjQsMjY1My4zMjgsMzc2LDI3MTguODA4LDM4OS4zNDJDMjc4NC4yODcsNDAyLjY4NCwyOTE1LjI0Niw0MTcuMzY4LDI5ODAuNzI1LDQyNC43MUwzMDQ2LjIwNSw0MzIuMDUyIj48L3BhdGg+PHBhdGggbWFya2VyLWVuZD0idXJsKCNnZU1lcm1haWRPdXRwdXQtMTc0MzcyNjIwNzEwMl9mbG93Y2hhcnQtdjItcG9pbnRFbmQpIiBzdHlsZT0iIiBjbGFzcz0iZWRnZS10aGlja25lc3Mtbm9ybWFsIGVkZ2UtcGF0dGVybi1zb2xpZCBlZGdlLXRoaWNrbmVzcy1ub3JtYWwgZWRnZS1wYXR0ZXJuLXNvbGlkIGZsb3djaGFydC1saW5rIiBpZD0iTF9XZWJTZXJ2ZXJNYWluX1Byb3h5QWN0b3JfMiIgZD0iTTI2MTAuMjcxLDE5MUwyNjAxLjY0NCwxOTYuOTE3QzI1OTMuMDE3LDIwMi44MzMsMjU3NS43NjIsMjE0LjY2NywyNTY3LjEzNSwyMzFDMjU1OC41MDgsMjQ3LjMzMywyNTU4LjUwOCwyNjguMTY3LDI1NTguNTA4LDI4OS4wODNDMjU1OC41MDgsMzEwLDI1NTguNTA4LDMzMSwyNTU4LjUwOCwzNDcuNUMyNTU4LjUwOCwzNjQsMjU1OC41MDgsMzc2LDI1NTguNTA4LDM5MC42NjdDMjU1OC41MDgsNDA1LjMzMywyNTU4LjUwOCw0MjIuNjY3LDI1NTguNTA4LDQ0MEMyNTU4LjUwOCw0NTcuMzMzLDI1NTguNTA4LDQ3NC42NjcsMjU1OC41MDgsNDg5LjI1QzI1NTguNTA4LDUwMy44MzMsMjU1OC41MDgsNTE1LjY2NywyNTU4LjUwOCw1MjcuNUMyNTU4LjUwOCw1MzkuMzMzLDI1NTguNTA4LDU1MS4xNjcsMjU2MC42ODgsNTYwLjY4QzI1NjIuODY4LDU3MC4xOTMsMjU2Ny4yMjgsNTc3LjM4NiwyNTY5LjQwOCw1ODAuOTgzTDI1NzEuNTg4LDU4NC41NzkiPjwvcGF0aD48cGF0aCBtYXJrZXItZW5kPSJ1cmwoI2dlTWVybWFpZE91dHB1dC0xNzQzNzI2MjA3MTAyX2Zsb3djaGFydC12Mi1wb2ludEVuZCkiIHN0eWxlPSIiIGNsYXNzPSJlZGdlLXRoaWNrbmVzcy1ub3JtYWwgZWRnZS1wYXR0ZXJuLXNvbGlkIGVkZ2UtdGhpY2tuZXNzLW5vcm1hbCBlZGdlLXBhdHRlcm4tc29saWQgZmxvd2NoYXJ0LWxpbmsiIGlkPSJMX1dlYlNlcnZlck1haW5fQXBpSGFuZGxlcnNfMyIgZD0iTTI1NDguNTgsMTkxTDI1MjYuNDM0LDE5Ni45MTdDMjUwNC4yODcsMjAyLjgzMywyNDU5Ljk5NSwyMTQuNjY3LDI0MzcuODQ5LDIyNS44MzNDMjQxNS43MDMsMjM3LDI0MTUuNzAzLDI0Ny41LDI0MTUuNzAzLDI1Mi43NUwyNDE1LjcwMywyNTgiPjwvcGF0aD48cGF0aCBtYXJrZXItZW5kPSJ1cmwoI2dlTWVybWFpZE91dHB1dC0xNzQzNzI2MjA3MTAyX2Zsb3djaGFydC12Mi1wb2ludEVuZCkiIHN0eWxlPSIiIGNsYXNzPSJlZGdlLXRoaWNrbmVzcy1ub3JtYWwgZWRnZS1wYXR0ZXJuLXNvbGlkIGVkZ2UtdGhpY2tuZXNzLW5vcm1hbCBlZGdlLXBhdHRlcm4tc29saWQgZmxvd2NoYXJ0LWxpbmsiIGlkPSJMX1N0YXRpY1NlcnZlcl9DbGllbnRBcHBfNCIgZD0iTTI4MzUuMDMxLDMxNkwyODM1LjAzMSwzMjJDMjgzNS4wMzEsMzI4LDI4MzUuMDMxLDM0MCwyODM1LjAzMSwzNTJDMjgzNS4wMzEsMzY0LDI4MzUuMDMxLDM3NiwyODcwLjIzNCwzODguNDlDMjkwNS40MzYsNDAwLjk4LDI5NzUuODQxLDQxMy45NTksMzAxMS4wNDQsNDIwLjQ0OUwzMDQ2LjI0Niw0MjYuOTM5Ij48L3BhdGg+PHBhdGggbWFya2VyLWVuZD0idXJsKCNnZU1lcm1haWRPdXRwdXQtMTc0MzcyNjIwNzEwMl9mbG93Y2hhcnQtdjItcG9pbnRFbmQpIiBzdHlsZT0iIiBjbGFzcz0iZWRnZS10aGlja25lc3Mtbm9ybWFsIGVkZ2UtcGF0dGVybi1zb2xpZCBlZGdlLXRoaWNrbmVzcy1ub3JtYWwgZWRnZS1wYXR0ZXJuLXNvbGlkIGZsb3djaGFydC1saW5rIiBpZD0iTF9XZWJTZXJ2ZXJNYWluX1N0YXRpY1NlcnZlcl81IiBkPSJNMjcyOS43MjksMTkxTDI3NDcuMjgsMTk2LjkxN0MyNzY0LjgzLDIwMi44MzMsMjc5OS45MzEsMjE0LjY2NywyODE3LjQ4MSwyMjUuODMzQzI4MzUuMDMxLDIzNywyODM1LjAzMSwyNDcuNSwyODM1LjAzMSwyNTIuNzVMMjgzNS4wMzEsMjU4Ij48L3BhdGg+PHBhdGggbWFya2VyLWVuZD0idXJsKCNnZU1lcm1haWRPdXRwdXQtMTc0MzcyNjIwNzEwMl9mbG93Y2hhcnQtdjItcG9pbnRFbmQpIiBzdHlsZT0iIiBjbGFzcz0iZWRnZS10aGlja25lc3Mtbm9ybWFsIGVkZ2UtcGF0dGVybi1zb2xpZCBlZGdlLXRoaWNrbmVzcy1ub3JtYWwgZWRnZS1wYXR0ZXJuLXNvbGlkIGZsb3djaGFydC1saW5rIiBpZD0iTF9MQl9XU19XU1NlcnZlck1haW5fNiIgZD0iTTE0OS45MzgsNjQyTDE0OS45MzgsNjQ2LjE2N0MxNDkuOTM4LDY1MC4zMzMsMTQ5LjkzOCw2NTguNjY3LDE0OS45MzgsNjY4Ljc1QzE0OS45MzgsNjc4LjgzMywxNDkuOTM4LDY5MC42NjcsMjU1LjI1NSw3MDUuMjA5QzM2MC41NzMsNzE5Ljc1MSw1NzEuMjA4LDczNy4wMDMsNjc2LjUyNiw3NDUuNjI4TDc4MS44NDMsNzU0LjI1NCI+PC9wYXRoPjxwYXRoIG1hcmtlci1lbmQ9InVybCgjZ2VNZXJtYWlkT3V0cHV0LTE3NDM3MjYyMDcxMDJfZmxvd2NoYXJ0LXYyLXBvaW50RW5kKSIgc3R5bGU9IiIgY2xhc3M9ImVkZ2UtdGhpY2tuZXNzLW5vcm1hbCBlZGdlLXBhdHRlcm4tc29saWQgZWRnZS10aGlja25lc3Mtbm9ybWFsIGVkZ2UtcGF0dGVybi1zb2xpZCBmbG93Y2hhcnQtbGluayIgaWQ9IkxfV1NTZXJ2ZXJNYWluX0NsaWVudFNlc3Npb25BY3Rvcl83IiBkPSJNMTA0MC4yNjgsNzg0LjEwOEwxMDg4Ljk3MSw3OTEuNDI0QzExMzcuNjc0LDc5OC43MzksMTIzNS4wODEsODEzLjM2OSwxMjgzLjc4NSw4MjYuMDE4QzEzMzIuNDg4LDgzOC42NjcsMTMzMi40ODgsODQ5LjMzMywxMzMyLjQ4OCw4NTQuNjY3TDEzMzIuNDg4LDg2MCI+PC9wYXRoPjxwYXRoIG1hcmtlci1lbmQ9InVybCgjZ2VNZXJtYWlkT3V0cHV0LTE3NDM3MjYyMDcxMDJfZmxvd2NoYXJ0LXYyLXBvaW50RW5kKSIgc3R5bGU9IiIgY2xhc3M9ImVkZ2UtdGhpY2tuZXNzLW5vcm1hbCBlZGdlLXBhdHRlcm4tc29saWQgZWRnZS10aGlja25lc3Mtbm9ybWFsIGVkZ2UtcGF0dGVybi1zb2xpZCBmbG93Y2hhcnQtbGluayIgaWQ9IkxfV1NTZXJ2ZXJNYWluX0FnZW50QWN0b3JfOCIgZD0iTTc4NS44Myw3NzQuODYyTDY3MS41ODEsNzgzLjcxOEM1NTcuMzMyLDc5Mi41NzUsMzI4LjgzNCw4MTAuMjg3LDIxNC41ODUsODI5LjY0NEMxMDAuMzM2LDg0OSwxMDAuMzM2LDg3MCwxMDAuMzM2LDg5Mi4zODNDMTAwLjMzNiw5MTQuNzY3LDEwMC4zMzYsOTM4LjUzMywxMDAuMzM2LDk1Ny44QzEwMC4zMzYsOTc3LjA2NywxMDAuMzM2LDk5MS44MzMsMTAwLjMzNiwxMDA3Ljg4M0MxMDAuMzM2LDEwMjMuOTMzLDEwMC4zMzYsMTA0MS4yNjcsMTAwLjMzNiwxMDYxLjgxN0MxMDAuMzM2LDEwODIuMzY3LDEwMC4zMzYsMTEwNi4xMzMsMTAwLjMzNiwxMTI5LjlDMTAwLjMzNiwxMTUzLjY2NywxMDAuMzM2LDExNzcuNDMzLDEwMC4zMzYsMTE5Ny45ODNDMTAwLjMzNiwxMjE4LjUzMywxMDAuMzM2LDEyMzUuODY3LDEwMC4zMzYsMTI1MS45MTdDMTAwLjMzNiwxMjY3Ljk2NywxMDAuMzM2LDEyODIuNzMzLDI2Ni45OTIsMTMwMS4xODZDNDMzLjY0NywxMzE5LjYzOCw3NjYuOTU5LDEzNDEuNzc2LDkzMy42MTUsMTM1Mi44NDVMMTEwMC4yNzEsMTM2My45MTQiPjwvcGF0aD48cGF0aCBtYXJrZXItZW5kPSJ1cmwoI2dlTWVybWFpZE91dHB1dC0xNzQzNzI2MjA3MTAyX2Zsb3djaGFydC12Mi1wb2ludEVuZCkiIHN0eWxlPSIiIGNsYXNzPSJlZGdlLXRoaWNrbmVzcy1ub3JtYWwgZWRnZS1wYXR0ZXJuLXNvbGlkIGVkZ2UtdGhpY2tuZXNzLW5vcm1hbCBlZGdlLXBhdHRlcm4tc29saWQgZmxvd2NoYXJ0LWxpbmsiIGlkPSJMX1dTU2VydmVyTWFpbl9TdGF0ZU1hbmFnZXJfOSIgZD0iTTkyNC42NzMsNzkyTDkyNy4yNTYsNzk4QzkyOS44MzksODA0LDkzNS4wMDYsODE2LDkzNy41ODksODMyLjVDOTQwLjE3Miw4NDksOTQwLjE3Miw4NzAsOTQwLjE3Miw4OTIuMzgzQzk0MC4xNzIsOTE0Ljc2Nyw5NDAuMTcyLDkzOC41MzMsOTQwLjE3Miw5NTcuOEM5NDAuMTcyLDk3Ny4wNjcsOTQwLjE3Miw5OTEuODMzLDk3Ni4yNzUsMTAwNS4wOTNDMTAxMi4zNzgsMTAxOC4zNTIsMTA4NC41ODQsMTAzMC4xMDQsMTEyMC42ODcsMTAzNS45OEwxMTU2Ljc5LDEwNDEuODU2Ij48L3BhdGg+PHBhdGggbWFya2VyLWVuZD0idXJsKCNnZU1lcm1haWRPdXRwdXQtMTc0MzcyNjIwNzEwMl9mbG93Y2hhcnQtdjItcG9pbnRFbmQpIiBzdHlsZT0iIiBjbGFzcz0iZWRnZS10aGlja25lc3Mtbm9ybWFsIGVkZ2UtcGF0dGVybi1zb2xpZCBlZGdlLXRoaWNrbmVzcy1ub3JtYWwgZWRnZS1wYXR0ZXJuLXNvbGlkIGZsb3djaGFydC1saW5rIiBpZD0iTF9XU1NlcnZlck1haW5fUm91dGVyXzEwIiBkPSJNNzk1Ljk4MSw3OTJMNzY5Ljk2Niw3OThDNzQzLjk1MSw4MDQsNjkxLjkyMSw4MTYsNjY1LjkwNiw4MzIuNUM2MzkuODkxLDg0OSw2MzkuODkxLDg3MCw2MzkuODkxLDg5Mi4zODNDNjM5Ljg5MSw5MTQuNzY3LDYzOS44OTEsOTM4LjUzMyw2MzkuODkxLDk1Ny44QzYzOS44OTEsOTc3LjA2Nyw2MzkuODkxLDk5MS44MzMsNjM5Ljg5MSwxMDA3Ljg4M0M2MzkuODkxLDEwMjMuOTMzLDYzOS44OTEsMTA0MS4yNjcsNjM5Ljg5MSwxMDYxLjgxN0M2MzkuODkxLDEwODIuMzY3LDYzOS44OTEsMTEwNi4xMzMsNjczLjg0MywxMTI2LjY1NEM3MDcuNzk2LDExNDcuMTc0LDc3NS43MDIsMTE2NC40NDksODA5LjY1NSwxMTczLjA4Nkw4NDMuNjA4LDExODEuNzIzIj48L3BhdGg+PHBhdGggbWFya2VyLWVuZD0idXJsKCNnZU1lcm1haWRPdXRwdXQtMTc0MzcyNjIwNzEwMl9mbG93Y2hhcnQtdjItcG9pbnRFbmQpIiBzdHlsZT0iIiBjbGFzcz0iZWRnZS10aGlja25lc3Mtbm9ybWFsIGVkZ2UtcGF0dGVybi1zb2xpZCBlZGdlLXRoaWNrbmVzcy1ub3JtYWwgZWRnZS1wYXR0ZXJuLXNvbGlkIGZsb3djaGFydC1saW5rIiBpZD0iTF9TdGF0ZU1hbmFnZXJfV1NTZXJ2ZXJNYWluXzExIiBkPSJNMTM1OC41OTgsMTA0Ni44NzlMMTQxNS4yNiwxMDQwLjE2NkMxNDcxLjkyMiwxMDMzLjQ1MywxNTg1LjI0NiwxMDIwLjAyNiwxNjQxLjkwOCwxMDA1LjkzQzE2OTguNTcsOTkxLjgzMywxNjk4LjU3LDk3Ny4wNjcsMTY5OC41Nyw5NTcuOEMxNjk4LjU3LDkzOC41MzMsMTY5OC41Nyw5MTQuNzY3LDE2OTguNTcsODkyLjM4M0MxNjk4LjU3LDg3MCwxNjk4LjU3LDg0OSwxNTg5LjUxOCw4MjkuNzU0QzE0ODAuNDY1LDgxMC41MDgsMTI2Mi4zNiw3OTMuMDE1LDExNTMuMzA3LDc4NC4yNjlMMTA0NC4yNTUsNzc1LjUyMyI+PC9wYXRoPjxwYXRoIG1hcmtlci1lbmQ9InVybCgjZ2VNZXJtYWlkT3V0cHV0LTE3NDM3MjYyMDcxMDJfZmxvd2NoYXJ0LXYyLXBvaW50RW5kKSIgc3R5bGU9IiIgY2xhc3M9ImVkZ2UtdGhpY2tuZXNzLW5vcm1hbCBlZGdlLXBhdHRlcm4tc29saWQgZWRnZS10aGlja25lc3Mtbm9ybWFsIGVkZ2UtcGF0dGVybi1zb2xpZCBmbG93Y2hhcnQtbGluayIgaWQ9IkxfQ2xpZW50U2Vzc2lvbkFjdG9yX1N0YXRlTWFuYWdlcl8xMiIgZD0iTTEyNDMuMTg3LDkxOEwxMjE4Ljc2OCw5MjUuMzgzQzExOTQuMzQ4LDkzMi43NjcsMTE0NS41MDgsOTQ3LjUzMywxMTIxLjA4OCw5NjIuM0MxMDk2LjY2OCw5NzcuMDY3LDEwOTYuNjY4LDk5MS44MzMsMTEwOS4wOTQsMTAwMy4xODFDMTEyMS41MiwxMDE0LjUyOCwxMTQ2LjM3MSwxMDIyLjQ1NiwxMTU4Ljc5NywxMDI2LjQyTDExNzEuMjIzLDEwMzAuMzg0Ij48L3BhdGg+PHBhdGggbWFya2VyLWVuZD0idXJsKCNnZU1lcm1haWRPdXRwdXQtMTc0MzcyNjIwNzEwMl9mbG93Y2hhcnQtdjItcG9pbnRFbmQpIiBzdHlsZT0iIiBjbGFzcz0iZWRnZS10aGlja25lc3Mtbm9ybWFsIGVkZ2UtcGF0dGVybi1zb2xpZCBlZGdlLXRoaWNrbmVzcy1ub3JtYWwgZWRnZS1wYXR0ZXJuLXNvbGlkIGZsb3djaGFydC1saW5rIiBpZD0iTF9DbGllbnRTZXNzaW9uQWN0b3JfU3RhdGVNYW5hZ2VyXzEzIiBkPSJNMTMwNi42Miw5MThMMTI5OS41NDYsOTI1LjM4M0MxMjkyLjQ3Miw5MzIuNzY3LDEyNzguMzI0LDk0Ny41MzMsMTI3MS4yNSw5NjIuM0MxMjY0LjE3Niw5NzcuMDY3LDEyNjQuMTc2LDk5MS44MzMsMTI2My44NzIsMTAwMi43MTlDMTI2My41NjksMTAxMy42MDUsMTI2Mi45NjEsMTAyMC42MSwxMjYyLjY1OCwxMDI0LjExMkwxMjYyLjM1NCwxMDI3LjYxNSI+PC9wYXRoPjxwYXRoIG1hcmtlci1lbmQ9InVybCgjZ2VNZXJtYWlkT3V0cHV0LTE3NDM3MjYyMDcxMDJfZmxvd2NoYXJ0LXYyLXBvaW50RW5kKSIgc3R5bGU9IiIgY2xhc3M9ImVkZ2UtdGhpY2tuZXNzLW5vcm1hbCBlZGdlLXBhdHRlcm4tc29saWQgZWRnZS10aGlja25lc3Mtbm9ybWFsIGVkZ2UtcGF0dGVybi1zb2xpZCBmbG93Y2hhcnQtbGluayIgaWQ9IkxfQ2xpZW50U2Vzc2lvbkFjdG9yX1N0YXRlTWFuYWdlcl8xNCIgZD0iTTEzNjguMDc4LDkxOEwxMzc3LjgxMSw5MjUuMzgzQzEzODcuNTQzLDkzMi43NjcsMTQwNy4wMDgsOTQ3LjUzMywxNDE2Ljc0LDk2Mi4zQzE0MjYuNDczLDk3Ny4wNjcsMTQyNi40NzMsOTkxLjgzMywxNDEzLjc0MywxMDAzLjE4NUMxNDAxLjAxNCwxMDE0LjUzNywxMzc1LjU1NSwxMDIyLjQ3MywxMzYyLjgyNiwxMDI2LjQ0MUwxMzUwLjA5NywxMDMwLjQxIj48L3BhdGg+PHBhdGggbWFya2VyLWVuZD0idXJsKCNnZU1lcm1haWRPdXRwdXQtMTc0MzcyNjIwNzEwMl9mbG93Y2hhcnQtdjItcG9pbnRFbmQpIiBzdHlsZT0iIiBjbGFzcz0iZWRnZS10aGlja25lc3Mtbm9ybWFsIGVkZ2UtcGF0dGVybi1zb2xpZCBlZGdlLXRoaWNrbmVzcy1ub3JtYWwgZWRnZS1wYXR0ZXJuLXNvbGlkIGZsb3djaGFydC1saW5rIiBpZD0iTF9DbGllbnRTZXNzaW9uQWN0b3JfU3RhdGVNYW5hZ2VyXzE1IiBkPSJNMTQyMS43ODksOTE4TDE0NDYuMjA5LDkyNS4zODNDMTQ3MC42MjksOTMyLjc2NywxNTE5LjQ2OSw5NDcuNTMzLDE1NDMuODg5LDk2Mi4zQzE1NjguMzA5LDk3Ny4wNjcsMTU2OC4zMDksOTkxLjgzMywxNTM0LjAxNCwxMDA0Ljk5NUMxNDk5LjcyLDEwMTguMTU2LDE0MzEuMTMxLDEwMjkuNzEyLDEzOTYuODM2LDEwMzUuNDlMMTM2Mi41NDIsMTA0MS4yNjgiPjwvcGF0aD48cGF0aCBtYXJrZXItZW5kPSJ1cmwoI2dlTWVybWFpZE91dHB1dC0xNzQzNzI2MjA3MTAyX2Zsb3djaGFydC12Mi1wb2ludEVuZCkiIHN0eWxlPSIiIGNsYXNzPSJlZGdlLXRoaWNrbmVzcy1ub3JtYWwgZWRnZS1wYXR0ZXJuLXNvbGlkIGVkZ2UtdGhpY2tuZXNzLW5vcm1hbCBlZGdlLXBhdHRlcm4tc29saWQgZmxvd2NoYXJ0LWxpbmsiIGlkPSJMX0NsaWVudFNlc3Npb25BY3Rvcl9Sb3V0ZXJfMTYiIGQ9Ik0xMjM0LjkwMiw5MDIuOTI2TDExNTMuOTI2LDkxMi44MjFDMTA3Mi45NTEsOTIyLjcxNyw5MTAuOTk5LDk0Mi41MDksODMwLjAyMyw5NTkuNzg4Qzc0OS4wNDcsOTc3LjA2Nyw3NDkuMDQ3LDk5MS44MzMsNzQ5LjA0NywxMDA3Ljg4M0M3NDkuMDQ3LDEwMjMuOTMzLDc0OS4wNDcsMTA0MS4yNjcsNzQ5LjA0NywxMDYxLjgxN0M3NDkuMDQ3LDEwODIuMzY3LDc0OS4wNDcsMTEwNi4xMzMsNzY2LjE1MiwxMTI1LjE0NEM3ODMuMjU3LDExNDQuMTU0LDgxNy40NjcsMTE1OC40MDgsODM0LjU3MywxMTY1LjUzNUw4NTEuNjc4LDExNzIuNjYyIj48L3BhdGg+PHBhdGggbWFya2VyLWVuZD0idXJsKCNnZU1lcm1haWRPdXRwdXQtMTc0MzcyNjIwNzEwMl9mbG93Y2hhcnQtdjItcG9pbnRFbmQpIiBzdHlsZT0iIiBjbGFzcz0iZWRnZS10aGlja25lc3Mtbm9ybWFsIGVkZ2UtcGF0dGVybi1zb2xpZCBlZGdlLXRoaWNrbmVzcy1ub3JtYWwgZWRnZS1wYXR0ZXJuLXNvbGlkIGZsb3djaGFydC1saW5rIiBpZD0iTF9DbGllbnRTZXNzaW9uQWN0b3JfUm91dGVyXzE3IiBkPSJNMTIzNC45MDIsOTA3Ljg3NUwxMTgyLjQ0Nyw5MTYuOTQ2QzExMjkuOTkyLDkyNi4wMTcsMTAyNS4wODIsOTQ0LjE1OCw5NzIuNjI3LDk2MC42MTNDOTIwLjE3Miw5NzcuMDY3LDkyMC4xNzIsOTkxLjgzMyw5MjAuMTcyLDEwMDcuODgzQzkyMC4xNzIsMTAyMy45MzMsOTIwLjE3MiwxMDQxLjI2Nyw5MjAuMTcyLDEwNjEuODE3QzkyMC4xNzIsMTA4Mi4zNjcsOTIwLjE3MiwxMTA2LjEzMyw5MjAuMTcyLDExMjQuNzMzQzkyMC4xNzIsMTE0My4zMzMsOTIwLjE3MiwxMTU2Ljc2Nyw5MjAuMTcyLDExNjMuNDgzTDkyMC4xNzIsMTE3MC4yIj48L3BhdGg+PHBhdGggbWFya2VyLWVuZD0idXJsKCNnZU1lcm1haWRPdXRwdXQtMTc0MzcyNjIwNzEwMl9mbG93Y2hhcnQtdjItcG9pbnRFbmQpIiBzdHlsZT0iIiBjbGFzcz0iZWRnZS10aGlja25lc3Mtbm9ybWFsIGVkZ2UtcGF0dGVybi1zb2xpZCBlZGdlLXRoaWNrbmVzcy1ub3JtYWwgZWRnZS1wYXR0ZXJuLXNvbGlkIGZsb3djaGFydC1saW5rIiBpZD0iTF9Sb3V0ZXJfQ2xpZW50U2Vzc2lvbkFjdG9yXzE4IiBkPSJNOTkyLjg1OSwxMTk0LjcwOUwxMTEzLjgxMSwxMTgzLjkwN0MxMjM0Ljc2MywxMTczLjEwNiwxNDc2LjY2NywxMTUxLjUwMywxNTk3LjYxOCwxMTI4LjgxOEMxNzE4LjU3LDExMDYuMTMzLDE3MTguNTcsMTA4Mi4zNjcsMTcxOC41NywxMDYxLjgxN0MxNzE4LjU3LDEwNDEuMjY3LDE3MTguNTcsMTAyMy45MzMsMTcxOC41NywxMDA3Ljg4M0MxNzE4LjU3LDk5MS44MzMsMTcxOC41Nyw5NzcuMDY3LDE2NzEuMTQzLDk2MC45MjVDMTYyMy43MTYsOTQ0Ljc4MywxNTI4Ljg2Miw5MjcuMjY1LDE0ODEuNDM1LDkxOC41MDdMMTQzNC4wMDgsOTA5Ljc0OCI+PC9wYXRoPjxwYXRoIG1hcmtlci1lbmQ9InVybCgjZ2VNZXJtYWlkT3V0cHV0LTE3NDM3MjYyMDcxMDJfZmxvd2NoYXJ0LXYyLXBvaW50RW5kKSIgc3R5bGU9IiIgY2xhc3M9ImVkZ2UtdGhpY2tuZXNzLW5vcm1hbCBlZGdlLXBhdHRlcm4tc29saWQgZWRnZS10aGlja25lc3Mtbm9ybWFsIGVkZ2UtcGF0dGVybi1zb2xpZCBmbG93Y2hhcnQtbGluayIgaWQ9IkxfQWdlbnRBY3Rvcl9TdGF0ZU1hbmFnZXJfMTkiIGQ9Ik0xMTA0LjI2MiwxMzYwLjgxNkwxMDEyLjI5OSwxMzUwLjI2M0M5MjAuMzM3LDEzMzkuNzExLDczNi40MTMsMTMxOC42MDUsNjQ0LjQ1MSwxMzAwLjY2OUM1NTIuNDg4LDEyODIuNzMzLDU1Mi40ODgsMTI2Ny45NjcsNTUyLjQ4OCwxMjUxLjkxN0M1NTIuNDg4LDEyMzUuODY3LDU1Mi40ODgsMTIxOC41MzMsNTUyLjQ4OCwxMTk3Ljk4M0M1NTIuNDg4LDExNzcuNDMzLDU1Mi40ODgsMTE1My42NjcsNjUzLjIsMTEzMS42MjlDNzUzLjkxMiwxMTA5LjU5Miw5NTUuMzM1LDEwODkuMjg0LDEwNTYuMDQ3LDEwNzkuMTNMMTE1Ni43NTgsMTA2OC45NzYiPjwvcGF0aD48cGF0aCBtYXJrZXItZW5kPSJ1cmwoI2dlTWVybWFpZE91dHB1dC0xNzQzNzI2MjA3MTAyX2Zsb3djaGFydC12Mi1wb2ludEVuZCkiIHN0eWxlPSIiIGNsYXNzPSJlZGdlLXRoaWNrbmVzcy1ub3JtYWwgZWRnZS1wYXR0ZXJuLXNvbGlkIGVkZ2UtdGhpY2tuZXNzLW5vcm1hbCBlZGdlLXBhdHRlcm4tc29saWQgZmxvd2NoYXJ0LWxpbmsiIGlkPSJMX0FnZW50QWN0b3JfU3RhdGVNYW5hZ2VyXzIwIiBkPSJNMTI0My40MTgsMTM2MC4wMTVMMTMyNS45NDMsMTM0OS41OTZDMTQwOC40NjksMTMzOS4xNzcsMTU3My41MiwxMzE4LjMzOCwxNjU2LjA0NSwxMzAwLjUzNkMxNzM4LjU3LDEyODIuNzMzLDE3MzguNTcsMTI2Ny45NjcsMTczOC41NywxMjUxLjkxN0MxNzM4LjU3LDEyMzUuODY3LDE3MzguNTcsMTIxOC41MzMsMTczOC41NywxMTk3Ljk4M0MxNzM4LjU3LDExNzcuNDMzLDE3MzguNTcsMTE1My42NjcsMTY3NS45MDEsMTEzMi40NTNDMTYxMy4yMzIsMTExMS4yMzksMTQ4Ny44OTMsMTA5Mi41NzksMTQyNS4yMjMsMTA4My4yNDhMMTM2Mi41NTQsMTA3My45MTgiPjwvcGF0aD48cGF0aCBtYXJrZXItZW5kPSJ1cmwoI2dlTWVybWFpZE91dHB1dC0xNzQzNzI2MjA3MTAyX2Zsb3djaGFydC12Mi1wb2ludEVuZCkiIHN0eWxlPSIiIGNsYXNzPSJlZGdlLXRoaWNrbmVzcy1ub3JtYWwgZWRnZS1wYXR0ZXJuLXNvbGlkIGVkZ2UtdGhpY2tuZXNzLW5vcm1hbCBlZGdlLXBhdHRlcm4tc29saWQgZmxvd2NoYXJ0LWxpbmsiIGlkPSJMX0FnZW50QWN0b3JfU3RhdGVNYW5hZ2VyXzIxIiBkPSJNMTI0My40MTgsMTM2MS44NzlMMTM1MS4yODYsMTM1MS4xNDlDMTQ1OS4xNTQsMTM0MC40MTksMTY3NC44ODksMTMxOC45NiwxNzgyLjc1NywxMzAwLjg0NkMxODkwLjYyNSwxMjgyLjczMywxODkwLjYyNSwxMjY3Ljk2NywxODkwLjYyNSwxMjUxLjkxN0MxODkwLjYyNSwxMjM1Ljg2NywxODkwLjYyNSwxMjE4LjUzMywxODkwLjYyNSwxMTk3Ljk4M0MxODkwLjYyNSwxMTc3LjQzMywxODkwLjYyNSwxMTUzLjY2NywxODAyLjYxNiwxMTMxLjgzOEMxNzE0LjYwNywxMTEwLjAwOSwxNTM4LjU5LDEwOTAuMTE5LDE0NTAuNTgxLDEwODAuMTc0TDEzNjIuNTcyLDEwNzAuMjI4Ij48L3BhdGg+PHBhdGggbWFya2VyLWVuZD0idXJsKCNnZU1lcm1haWRPdXRwdXQtMTc0MzcyNjIwNzEwMl9mbG93Y2hhcnQtdjItcG9pbnRFbmQpIiBzdHlsZT0iIiBjbGFzcz0iZWRnZS10aGlja25lc3Mtbm9ybWFsIGVkZ2UtcGF0dGVybi1zb2xpZCBlZGdlLXRoaWNrbmVzcy1ub3JtYWwgZWRnZS1wYXR0ZXJuLXNvbGlkIGZsb3djaGFydC1saW5rIiBpZD0iTF9BZ2VudEFjdG9yX1JvdXRlcl8yMiIgZD0iTTEyNDMuNDE4LDEzNjIuNjYxTDEzNjYuNDk0LDEzNTEuOEMxNDg5LjU3LDEzNDAuOTQsMTczNS43MjMsMTMxOS4yMiwxODU4Ljc5OSwxMzAwLjk3N0MxOTgxLjg3NSwxMjgyLjczMywxOTgxLjg3NSwxMjY3Ljk2NywxODE3LjcwNSwxMjUyLjU0M0MxNjUzLjUzNSwxMjM3LjExOSwxMzI1LjE5NSwxMjIxLjAzNywxMTYxLjAyNSwxMjEyLjk5Nkw5OTYuODU1LDEyMDQuOTU2Ij48L3BhdGg+PHBhdGggbWFya2VyLWVuZD0idXJsKCNnZU1lcm1haWRPdXRwdXQtMTc0MzcyNjIwNzEwMl9mbG93Y2hhcnQtdjItcG9pbnRFbmQpIiBzdHlsZT0iIiBjbGFzcz0iZWRnZS10aGlja25lc3Mtbm9ybWFsIGVkZ2UtcGF0dGVybi1zb2xpZCBlZGdlLXRoaWNrbmVzcy1ub3JtYWwgZWRnZS1wYXR0ZXJuLXNvbGlkIGZsb3djaGFydC1saW5rIiBpZD0iTF9Sb3V0ZXJfQWdlbnRBY3Rvcl8yMyIgZD0iTTg0Ny40ODQsMTIwNi42MDJMNzQyLjk3NSwxMjE0LjM2OEM2MzguNDY2LDEyMjIuMTM0LDQyOS40NDgsMTIzNy42NjcsMzI0LjkzOSwxMjUyLjgxN0MyMjAuNDMsMTI2Ny45NjcsMjIwLjQzLDEyODIuNzMzLDM2Ny4wNywxMzAxLjA4M0M1MTMuNzExLDEzMTkuNDMzLDgwNi45OTIsMTM0MS4zNjYsOTUzLjYzMiwxMzUyLjMzMkwxMTAwLjI3MywxMzYzLjI5OCI+PC9wYXRoPjxwYXRoIG1hcmtlci1lbmQ9InVybCgjZ2VNZXJtYWlkT3V0cHV0LTE3NDM3MjYyMDcxMDJfZmxvd2NoYXJ0LXYyLXBvaW50RW5kKSIgc3R5bGU9IiIgY2xhc3M9ImVkZ2UtdGhpY2tuZXNzLW5vcm1hbCBlZGdlLXBhdHRlcm4tc29saWQgZWRnZS10aGlja25lc3Mtbm9ybWFsIGVkZ2UtcGF0dGVybi1zb2xpZCBmbG93Y2hhcnQtbGluayIgaWQ9IkxfQWdlbnRBY3Rvcl9Sb3V0ZXJfMjQiIGQ9Ik0xMjQzLjQxOCwxMzYzLjczNEwxMzk1LjAxNywxMzUyLjY5NUMxNTQ2LjYxNiwxMzQxLjY1NiwxODQ5LjgxNCwxMzE5LjU3OCwyMDAxLjQxMywxMzAxLjE1NkMyMTUzLjAxMiwxMjgyLjczMywyMTUzLjAxMiwxMjY3Ljk2NywxOTYwLjMxOSwxMjUyLjQ1NkMxNzY3LjYyNiwxMjM2Ljk0NSwxMzgyLjI0MSwxMjIwLjY5LDExODkuNTQ4LDEyMTIuNTYyTDk5Ni44NTYsMTIwNC40MzQiPjwvcGF0aD48cGF0aCBtYXJrZXItZW5kPSJ1cmwoI2dlTWVybWFpZE91dHB1dC0xNzQzNzI2MjA3MTAyX2Zsb3djaGFydC12Mi1wb2ludEVuZCkiIHN0eWxlPSIiIGNsYXNzPSJlZGdlLXRoaWNrbmVzcy1ub3JtYWwgZWRnZS1wYXR0ZXJuLXNvbGlkIGVkZ2UtdGhpY2tuZXNzLW5vcm1hbCBlZGdlLXBhdHRlcm4tc29saWQgZmxvd2NoYXJ0LWxpbmsiIGlkPSJMX1N0YXRlTWFuYWdlcl9Sb3V0ZXJfMjUiIGQ9Ik0xMjU5LjY2OCwxMDg1LjZMMTI1OS42NjgsMTA5Mi45ODNDMTI1OS42NjgsMTEwMC4zNjcsMTI1OS42NjgsMTExNS4xMzMsMTIxNS44NTIsMTEzMS43MTlDMTE3Mi4wMzcsMTE0OC4zMDQsMTA4NC40MDUsMTE2Ni43MDgsMTA0MC41OSwxMTc1LjkxTDk5Ni43NzQsMTE4NS4xMTIiPjwvcGF0aD48cGF0aCBtYXJrZXItZW5kPSJ1cmwoI2dlTWVybWFpZE91dHB1dC0xNzQzNzI2MjA3MTAyX2Zsb3djaGFydC12Mi1wb2ludEVuZCkiIHN0eWxlPSIiIGNsYXNzPSJlZGdlLXRoaWNrbmVzcy1ub3JtYWwgZWRnZS1wYXR0ZXJuLXNvbGlkIGVkZ2UtdGhpY2tuZXNzLW5vcm1hbCBlZGdlLXBhdHRlcm4tc29saWQgZmxvd2NoYXJ0LWxpbmsiIGlkPSJMX1JvdXRlcl9BZ2VudEFjdG9yXzI2IiBkPSJNODQ3LjQ4NCwxMjA5LjAwMkw3NzguODYsMTIxNi4zNjlDNzEwLjIzNiwxMjIzLjczNSw1NzIuOTg3LDEyMzguNDY3LDUwNC4zNjMsMTI1My4yMTdDNDM1LjczOCwxMjY3Ljk2Nyw0MzUuNzM4LDEyODIuNzMzLDU0Ni40OTUsMTMwMC44MTZDNjU3LjI1MiwxMzE4Ljg5OCw4NzguNzY2LDEzNDAuMjk2LDk4OS41MjMsMTM1MC45OTVMMTEwMC4yOCwxMzYxLjY5NCI+PC9wYXRoPjxwYXRoIG1hcmtlci1lbmQ9InVybCgjZ2VNZXJtYWlkT3V0cHV0LTE3NDM3MjYyMDcxMDJfZmxvd2NoYXJ0LXYyLXBvaW50RW5kKSIgc3R5bGU9IiIgY2xhc3M9ImVkZ2UtdGhpY2tuZXNzLW5vcm1hbCBlZGdlLXBhdHRlcm4tc29saWQgZWRnZS10aGlja25lc3Mtbm9ybWFsIGVkZ2UtcGF0dGVybi1zb2xpZCBmbG93Y2hhcnQtbGluayIgaWQ9IkxfQ2xpZW50QXBwX1Byb3h5QWN0b3JfMjciIGQ9Ik0zMTE3LjA5NCw0NjdMMzExNy4wOTQsNDcxLjE2N0MzMTE3LjA5NCw0NzUuMzMzLDMxMTcuMDk0LDQ4My42NjcsMzA1OS45NCw0OTMuNzVDMzAwMi43ODYsNTAzLjgzMywyODg4LjQ3OSw1MTUuNjY3LDI4MzEuMzI2LDUyNy41QzI3NzQuMTcyLDUzOS4zMzMsMjc3NC4xNzIsNTUxLjE2NywyNzYwLjA1OCw1NjEuMDY5QzI3NDUuOTQ1LDU3MC45NzEsMjcxNy43MTcsNTc4Ljk0MiwyNzAzLjYwNCw1ODIuOTI3TDI2ODkuNDksNTg2LjkxMyI+PC9wYXRoPjxwYXRoIG1hcmtlci1lbmQ9InVybCgjZ2VNZXJtYWlkT3V0cHV0LTE3NDM3MjYyMDcxMDJfZmxvd2NoYXJ0LXYyLXBvaW50RW5kKSIgc3R5bGU9IiIgY2xhc3M9ImVkZ2UtdGhpY2tuZXNzLW5vcm1hbCBlZGdlLXBhdHRlcm4tc29saWQgZWRnZS10aGlja25lc3Mtbm9ybWFsIGVkZ2UtcGF0dGVybi1zb2xpZCBmbG93Y2hhcnQtbGluayIgaWQ9IkxfUHJveHlBY3Rvcl9XU1NlcnZlck1haW5fMjgiIGQ9Ik0yNTkwLjAyNyw2NDJMMjU5MC4wMjcsNjQ2LjE2N0MyNTkwLjAyNyw2NTAuMzMzLDI1OTAuMDI3LDY1OC42NjcsMjMxMi45ODMsNjY4Ljc1QzIwMzUuOTM5LDY3OC44MzMsMTQ4MS44NTIsNjkwLjY2NywxMjAzLjU2Nyw3MDEuODUxQzkyNS4yODMsNzEzLjAzNSw5MjIuODAzLDcyMy41NzEsOTIxLjU2Myw3MjguODM5TDkyMC4zMjIsNzM0LjEwNiI+PC9wYXRoPjxwYXRoIG1hcmtlci1lbmQ9InVybCgjZ2VNZXJtYWlkT3V0cHV0LTE3NDM3MjYyMDcxMDJfZmxvd2NoYXJ0LXYyLXBvaW50RW5kKSIgc3R5bGU9IiIgY2xhc3M9ImVkZ2UtdGhpY2tuZXNzLW5vcm1hbCBlZGdlLXBhdHRlcm4tc29saWQgZWRnZS10aGlja25lc3Mtbm9ybWFsIGVkZ2UtcGF0dGVybi1zb2xpZCBmbG93Y2hhcnQtbGluayIgaWQ9IkxfQWdlbnRTeXN0ZW1fV1NTZXJ2ZXJNYWluXzI5IiBkPSJNMzExNy4wOTQsNjQyTDMxMTcuMDk0LDY0Ni4xNjdDMzExNy4wOTQsNjUwLjMzMywzMTE3LjA5NCw2NTguNjY3LDI5MzMuMzIxLDY2OC43NUMyNzQ5LjU0OCw2NzguODMzLDIzODIuMDAzLDY5MC42NjcsMjAzNi41MzEsNzA1Ljc1OUMxNjkxLjA1OCw3MjAuODUxLDEzNjcuNjYsNzM5LjIwMywxMjA1Ljk2LDc0OC4zNzlMMTA0NC4yNjEsNzU3LjU1NCI+PC9wYXRoPjwvZz48ZyBjbGFzcz0iZWRnZUxhYmVscyI+PGc+PHJlY3Qgc3R5bGU9InN0cm9rZTogbm9uZSIgY2xhc3M9ImJhY2tncm91bmQiPjwvcmVjdD48L2c+PGc+PHJlY3Qgc3R5bGU9InN0cm9rZTogbm9uZSIgY2xhc3M9ImJhY2tncm91bmQiPjwvcmVjdD48L2c+PGcgY2xhc3M9ImVkZ2VMYWJlbCI+PGcgdHJhbnNmb3JtPSJ0cmFuc2xhdGUoMCwgMCkiIGNsYXNzPSJsYWJlbCI+PHRleHQgeT0iLTEwLjEiPjx0c3BhbiBkeT0iMS4xZW0iIHk9Ii0wLjFlbSIgeD0iMCIgY2xhc3M9InRleHQtb3V0ZXItdHNwYW4iPjwvdHNwYW4+PC90ZXh0PjwvZz48L2c+PGcgdHJhbnNmb3JtPSJ0cmFuc2xhdGUoMjY1My4zMjgxMjUsIDI4OSkiIGNsYXNzPSJlZGdlTGFiZWwiPjxnIHRyYW5zZm9ybT0idHJhbnNsYXRlKC0yNi44OTg0Mzc1LCAtMTAuNSkiIGNsYXNzPSJsYWJlbCI+PGc+PHJlY3QgaGVpZ2h0PSIyMSIgd2lkdGg9IjUzLjc5Njg3NSIgeT0iMCIgeD0iLTIiIHN0eWxlPSIiIGNsYXNzPSJiYWNrZ3JvdW5kIj48L3JlY3Q+PHRleHQgc3R5bGU9IiIgeT0iLTEwLjEiPjx0c3BhbiBkeT0iMS4xZW0iIHk9Ii0wLjFlbSIgeD0iMCIgY2xhc3M9InRleHQtb3V0ZXItdHNwYW4iPjx0c3BhbiBmb250LXdlaWdodD0ibm9ybWFsIiBjbGFzcz0idGV4dC1pbm5lci10c3BhbiIgZm9udC1zdHlsZT0ibm9ybWFsIj5TZXJ2ZXM8L3RzcGFuPjwvdHNwYW4+PC90ZXh0PjwvZz48L2c+PC9nPjxnIHRyYW5zZm9ybT0idHJhbnNsYXRlKDI1NTguNTA3ODEyNSwgMzUyKSIgY2xhc3M9ImVkZ2VMYWJlbCI+PGcgdHJhbnNmb3JtPSJ0cmFuc2xhdGUoLTc0LjgyMDMxMjUsIC0xMSkiIGNsYXNzPSJsYWJlbCI+PGc+PHJlY3QgaGVpZ2h0PSIyMiIgd2lkdGg9IjE0OS42NDA2MjUiIHk9IjAiIHg9Ii0yIiBzdHlsZT0iIiBjbGFzcz0iYmFja2dyb3VuZCI+PC9yZWN0Pjx0ZXh0IHN0eWxlPSIiIHk9Ii0xMC4xIj48dHNwYW4gZHk9IjEuMWVtIiB5PSItMC4xZW0iIHg9IjAiIGNsYXNzPSJ0ZXh0LW91dGVyLXRzcGFuIj48dHNwYW4gZm9udC13ZWlnaHQ9Im5vcm1hbCIgY2xhc3M9InRleHQtaW5uZXItdHNwYW4iIGZvbnQtc3R5bGU9Im5vcm1hbCI+Um91dGU8L3RzcGFuPjx0c3BhbiBmb250LXdlaWdodD0ibm9ybWFsIiBjbGFzcz0idGV4dC1pbm5lci10c3BhbiIgZm9udC1zdHlsZT0ibm9ybWFsIj4gL3dzL3tjbGllbnRfaWR9PC90c3Bhbj48L3RzcGFuPjwvdGV4dD48L2c+PC9nPjwvZz48ZyB0cmFuc2Zvcm09InRyYW5zbGF0ZSgyNDE1LjcwMzEyNSwgMjI2LjUpIiBjbGFzcz0iZWRnZUxhYmVsIj48ZyB0cmFuc2Zvcm09InRyYW5zbGF0ZSgtMzguNDc2NTYyNSwgLTEwLjUpIiBjbGFzcz0ibGFiZWwiPjxnPjxyZWN0IGhlaWdodD0iMjEiIHdpZHRoPSI3Ni45NTMxMjUiIHk9IjAiIHg9Ii0yIiBzdHlsZT0iIiBjbGFzcz0iYmFja2dyb3VuZCI+PC9yZWN0Pjx0ZXh0IHN0eWxlPSIiIHk9Ii0xMC4xIj48dHNwYW4gZHk9IjEuMWVtIiB5PSItMC4xZW0iIHg9IjAiIGNsYXNzPSJ0ZXh0LW91dGVyLXRzcGFuIj48dHNwYW4gZm9udC13ZWlnaHQ9Im5vcm1hbCIgY2xhc3M9InRleHQtaW5uZXItdHNwYW4iIGZvbnQtc3R5bGU9Im5vcm1hbCI+Um91dGU8L3RzcGFuPjx0c3BhbiBmb250LXdlaWdodD0ibm9ybWFsIiBjbGFzcz0idGV4dC1pbm5lci10c3BhbiIgZm9udC1zdHlsZT0ibm9ybWFsIj4gL2FwaTwvdHNwYW4+PC90c3Bhbj48L3RleHQ+PC9nPjwvZz48L2c+PGcgdHJhbnNmb3JtPSJ0cmFuc2xhdGUoMjgzNS4wMzEyNSwgMzUyKSIgY2xhc3M9ImVkZ2VMYWJlbCI+PGcgdHJhbnNmb3JtPSJ0cmFuc2xhdGUoLTUyLjY4NzUsIC0xMC41KSIgY2xhc3M9ImxhYmVsIj48Zz48cmVjdCBoZWlnaHQ9IjIxIiB3aWR0aD0iMTA1LjM3NSIgeT0iMCIgeD0iLTIiIHN0eWxlPSIiIGNsYXNzPSJiYWNrZ3JvdW5kIj48L3JlY3Q+PHRleHQgc3R5bGU9IiIgeT0iLTEwLjEiPjx0c3BhbiBkeT0iMS4xZW0iIHk9Ii0wLjFlbSIgeD0iMCIgY2xhc3M9InRleHQtb3V0ZXItdHNwYW4iPjx0c3BhbiBmb250LXdlaWdodD0ibm9ybWFsIiBjbGFzcz0idGV4dC1pbm5lci10c3BhbiIgZm9udC1zdHlsZT0ibm9ybWFsIj5TZXJ2ZXM8L3RzcGFuPjx0c3BhbiBmb250LXdlaWdodD0ibm9ybWFsIiBjbGFzcz0idGV4dC1pbm5lci10c3BhbiIgZm9udC1zdHlsZT0ibm9ybWFsIj4gQXNzZXRzPC90c3Bhbj48L3RzcGFuPjwvdGV4dD48L2c+PC9nPjwvZz48ZyB0cmFuc2Zvcm09InRyYW5zbGF0ZSgyODM1LjAzMTI1LCAyMjYuNSkiIGNsYXNzPSJlZGdlTGFiZWwiPjxnIHRyYW5zZm9ybT0idHJhbnNsYXRlKC0yMC4yMjY1NjI1LCAtMTAuNSkiIGNsYXNzPSJsYWJlbCI+PGc+PHJlY3QgaGVpZ2h0PSIyMSIgd2lkdGg9IjQwLjQ1MzEyNSIgeT0iMCIgeD0iLTIiIHN0eWxlPSIiIGNsYXNzPSJiYWNrZ3JvdW5kIj48L3JlY3Q+PHRleHQgc3R5bGU9IiIgeT0iLTEwLjEiPjx0c3BhbiBkeT0iMS4xZW0iIHk9Ii0wLjFlbSIgeD0iMCIgY2xhc3M9InRleHQtb3V0ZXItdHNwYW4iPjx0c3BhbiBmb250LXdlaWdodD0ibm9ybWFsIiBjbGFzcz0idGV4dC1pbm5lci10c3BhbiIgZm9udC1zdHlsZT0ibm9ybWFsIj5Vc2VzPC90c3Bhbj48L3RzcGFuPjwvdGV4dD48L2c+PC9nPjwvZz48ZyBjbGFzcz0iZWRnZUxhYmVsIj48ZyB0cmFuc2Zvcm09InRyYW5zbGF0ZSgwLCAwKSIgY2xhc3M9ImxhYmVsIj48dGV4dCB5PSItMTAuMSI+PHRzcGFuIGR5PSIxLjFlbSIgeT0iLTAuMWVtIiB4PSIwIiBjbGFzcz0idGV4dC1vdXRlci10c3BhbiI+PC90c3Bhbj48L3RleHQ+PC9nPjwvZz48ZyB0cmFuc2Zvcm09InRyYW5zbGF0ZSgxMzMyLjQ4ODI4MTI1LCA4MjgpIiBjbGFzcz0iZWRnZUxhYmVsIj48ZyB0cmFuc2Zvcm09InRyYW5zbGF0ZSgtOTUuNzE4NzUsIC0xMSkiIGNsYXNzPSJsYWJlbCI+PGc+PHJlY3QgaGVpZ2h0PSIyMiIgd2lkdGg9IjE5MS40Mzc1IiB5PSIwIiB4PSItMiIgc3R5bGU9IiIgY2xhc3M9ImJhY2tncm91bmQiPjwvcmVjdD48dGV4dCBzdHlsZT0iIiB5PSItMTAuMSI+PHRzcGFuIGR5PSIxLjFlbSIgeT0iLTAuMWVtIiB4PSIwIiBjbGFzcz0idGV4dC1vdXRlci10c3BhbiI+PHRzcGFuIGZvbnQtd2VpZ2h0PSJub3JtYWwiIGNsYXNzPSJ0ZXh0LWlubmVyLXRzcGFuIiBmb250LXN0eWxlPSJub3JtYWwiPlJvdXRlPC90c3Bhbj48dHNwYW4gZm9udC13ZWlnaHQ9Im5vcm1hbCIgY2xhc3M9InRleHQtaW5uZXItdHNwYW4iIGZvbnQtc3R5bGU9Im5vcm1hbCI+IC93cy9jbGllbnQve2NsaWVudF9pZH08L3RzcGFuPjwvdHNwYW4+PC90ZXh0PjwvZz48L2c+PC9nPjxnIHRyYW5zZm9ybT0idHJhbnNsYXRlKDEwMC4zMzU5Mzc1LCAxMDU4LjU5OTk5ODQ3NDEyMSkiIGNsYXNzPSJlZGdlTGFiZWwiPjxnIHRyYW5zZm9ybT0idHJhbnNsYXRlKC02MC4wOTM3NSwgLTEwLjUpIiBjbGFzcz0ibGFiZWwiPjxnPjxyZWN0IGhlaWdodD0iMjEiIHdpZHRoPSIxMjAuMTg3NSIgeT0iMCIgeD0iLTIiIHN0eWxlPSIiIGNsYXNzPSJiYWNrZ3JvdW5kIj48L3JlY3Q+PHRleHQgc3R5bGU9IiIgeT0iLTEwLjEiPjx0c3BhbiBkeT0iMS4xZW0iIHk9Ii0wLjFlbSIgeD0iMCIgY2xhc3M9InRleHQtb3V0ZXItdHNwYW4iPjx0c3BhbiBmb250LXdlaWdodD0ibm9ybWFsIiBjbGFzcz0idGV4dC1pbm5lci10c3BhbiIgZm9udC1zdHlsZT0ibm9ybWFsIj5Sb3V0ZTwvdHNwYW4+PHRzcGFuIGZvbnQtd2VpZ2h0PSJub3JtYWwiIGNsYXNzPSJ0ZXh0LWlubmVyLXRzcGFuIiBmb250LXN0eWxlPSJub3JtYWwiPiAvd3MvYWdlbnQ8L3RzcGFuPjwvdHNwYW4+PC90ZXh0PjwvZz48L2c+PC9nPjxnIHRyYW5zZm9ybT0idHJhbnNsYXRlKDk0MC4xNzE4NzUsIDg5MSkiIGNsYXNzPSJlZGdlTGFiZWwiPjxnIHRyYW5zZm9ybT0idHJhbnNsYXRlKC04OS4xNTYyNSwgLTE5LjI5OTk5OTIzNzA2MDU0NykiIGNsYXNzPSJsYWJlbCI+PGc+PHJlY3QgaGVpZ2h0PSIzOC41OTk5OTg0NzQxMjEwOTQiIHdpZHRoPSIxNzguMzEyNSIgeT0iMCIgeD0iLTIiIHN0eWxlPSIiIGNsYXNzPSJiYWNrZ3JvdW5kIj48L3JlY3Q+PHRleHQgc3R5bGU9IiIgeT0iLTEwLjEiPjx0c3BhbiBkeT0iMS4xZW0iIHk9Ii0wLjFlbSIgeD0iMCIgY2xhc3M9InRleHQtb3V0ZXItdHNwYW4iPjx0c3BhbiBmb250LXdlaWdodD0ibm9ybWFsIiBjbGFzcz0idGV4dC1pbm5lci10c3BhbiIgZm9udC1zdHlsZT0ibm9ybWFsIj5TcGF3bnM8L3RzcGFuPjx0c3BhbiBmb250LXdlaWdodD0ibm9ybWFsIiBjbGFzcz0idGV4dC1pbm5lci10c3BhbiIgZm9udC1zdHlsZT0ibm9ybWFsIj4gJmFtcDthbXA7PC90c3Bhbj48dHNwYW4gZm9udC13ZWlnaHQ9Im5vcm1hbCIgY2xhc3M9InRleHQtaW5uZXItdHNwYW4iIGZvbnQtc3R5bGU9Im5vcm1hbCI+IFByb3ZpZGVzPC90c3Bhbj48L3RzcGFuPjx0c3BhbiBkeT0iMS4xZW0iIHk9IjFlbSIgeD0iMCIgY2xhc3M9InRleHQtb3V0ZXItdHNwYW4iPjx0c3BhbiBmb250LXdlaWdodD0ibm9ybWFsIiBjbGFzcz0idGV4dC1pbm5lci10c3BhbiIgZm9udC1zdHlsZT0ibm9ybWFsIj5BZGRyPC90c3Bhbj48L3RzcGFuPjwvdGV4dD48L2c+PC9nPjwvZz48ZyB0cmFuc2Zvcm09InRyYW5zbGF0ZSg2MzkuODkwNjI1LCA5NjIuMjk5OTk5MjM3MDYwNSkiIGNsYXNzPSJlZGdlTGFiZWwiPjxnIHRyYW5zZm9ybT0idHJhbnNsYXRlKC04OS4xNTYyNSwgLTE5LjI5OTk5OTIzNzA2MDU0NykiIGNsYXNzPSJsYWJlbCI+PGc+PHJlY3QgaGVpZ2h0PSIzOC41OTk5OTg0NzQxMjEwOTQiIHdpZHRoPSIxNzguMzEyNSIgeT0iMCIgeD0iLTIiIHN0eWxlPSIiIGNsYXNzPSJiYWNrZ3JvdW5kIj48L3JlY3Q+PHRleHQgc3R5bGU9IiIgeT0iLTEwLjEiPjx0c3BhbiBkeT0iMS4xZW0iIHk9Ii0wLjFlbSIgeD0iMCIgY2xhc3M9InRleHQtb3V0ZXItdHNwYW4iPjx0c3BhbiBmb250LXdlaWdodD0ibm9ybWFsIiBjbGFzcz0idGV4dC1pbm5lci10c3BhbiIgZm9udC1zdHlsZT0ibm9ybWFsIj5TcGF3bnM8L3RzcGFuPjx0c3BhbiBmb250LXdlaWdodD0ibm9ybWFsIiBjbGFzcz0idGV4dC1pbm5lci10c3BhbiIgZm9udC1zdHlsZT0ibm9ybWFsIj4gJmFtcDthbXA7PC90c3Bhbj48dHNwYW4gZm9udC13ZWlnaHQ9Im5vcm1hbCIgY2xhc3M9InRleHQtaW5uZXItdHNwYW4iIGZvbnQtc3R5bGU9Im5vcm1hbCI+IFByb3ZpZGVzPC90c3Bhbj48L3RzcGFuPjx0c3BhbiBkeT0iMS4xZW0iIHk9IjFlbSIgeD0iMCIgY2xhc3M9InRleHQtb3V0ZXItdHNwYW4iPjx0c3BhbiBmb250LXdlaWdodD0ibm9ybWFsIiBjbGFzcz0idGV4dC1pbm5lci10c3BhbiIgZm9udC1zdHlsZT0ibm9ybWFsIj5BZGRyPC90c3Bhbj48L3RzcGFuPjwvdGV4dD48L2c+PC9nPjwvZz48ZyB0cmFuc2Zvcm09InRyYW5zbGF0ZSgxNjk4LjU3MDMxMjUsIDg5MSkiIGNsYXNzPSJlZGdlTGFiZWwiPjxnIHRyYW5zZm9ybT0idHJhbnNsYXRlKC01Mi4xNDA2MjUsIC0xMC41KSIgY2xhc3M9ImxhYmVsIj48Zz48cmVjdCBoZWlnaHQ9IjIxIiB3aWR0aD0iMTA0LjI4MTI1IiB5PSIwIiB4PSItMiIgc3R5bGU9IiIgY2xhc3M9ImJhY2tncm91bmQiPjwvcmVjdD48dGV4dCBzdHlsZT0iIiB5PSItMTAuMSI+PHRzcGFuIGR5PSIxLjFlbSIgeT0iLTAuMWVtIiB4PSIwIiBjbGFzcz0idGV4dC1vdXRlci10c3BhbiI+PHRzcGFuIGZvbnQtd2VpZ2h0PSJub3JtYWwiIGNsYXNzPSJ0ZXh0LWlubmVyLXRzcGFuIiBmb250LXN0eWxlPSJub3JtYWwiPlByb3ZpZGVzPC90c3Bhbj48dHNwYW4gZm9udC13ZWlnaHQ9Im5vcm1hbCIgY2xhc3M9InRleHQtaW5uZXItdHNwYW4iIGZvbnQtc3R5bGU9Im5vcm1hbCI+IEFkZHI8L3RzcGFuPjwvdHNwYW4+PC90ZXh0PjwvZz48L2c+PC9nPjxnIHRyYW5zZm9ybT0idHJhbnNsYXRlKDEwOTYuNjY3OTY4NzUsIDk2Mi4yOTk5OTkyMzcwNjA1KSIgY2xhc3M9ImVkZ2VMYWJlbCI+PGcgdHJhbnNmb3JtPSJ0cmFuc2xhdGUoLTcxLjI1LCAtMTAuNSkiIGNsYXNzPSJsYWJlbCI+PGc+PHJlY3QgaGVpZ2h0PSIyMSIgd2lkdGg9IjE0Mi41IiB5PSIwIiB4PSItMiIgc3R5bGU9IiIgY2xhc3M9ImJhY2tncm91bmQiPjwvcmVjdD48dGV4dCBzdHlsZT0iIiB5PSItMTAuMSI+PHRzcGFuIGR5PSIxLjFlbSIgeT0iLTAuMWVtIiB4PSIwIiBjbGFzcz0idGV4dC1vdXRlci10c3BhbiI+PHRzcGFuIGZvbnQtd2VpZ2h0PSJub3JtYWwiIGNsYXNzPSJ0ZXh0LWlubmVyLXRzcGFuIiBmb250LXN0eWxlPSJub3JtYWwiPlJlZ2lzdGVyL1VucmVnaXN0ZXI8L3RzcGFuPjwvdHNwYW4+PC90ZXh0PjwvZz48L2c+PC9nPjxnIHRyYW5zZm9ybT0idHJhbnNsYXRlKDEyNjQuMTc1NzgxMjUsIDk2Mi4yOTk5OTkyMzcwNjA1KSIgY2xhc3M9ImVkZ2VMYWJlbCI+PGcgdHJhbnNmb3JtPSJ0cmFuc2xhdGUoLTc2LjI1NzgxMjUsIC0xMC41KSIgY2xhc3M9ImxhYmVsIj48Zz48cmVjdCBoZWlnaHQ9IjIxIiB3aWR0aD0iMTUyLjUxNTYyNSIgeT0iMCIgeD0iLTIiIHN0eWxlPSIiIGNsYXNzPSJiYWNrZ3JvdW5kIj48L3JlY3Q+PHRleHQgc3R5bGU9IiIgeT0iLTEwLjEiPjx0c3BhbiBkeT0iMS4xZW0iIHk9Ii0wLjFlbSIgeD0iMCIgY2xhc3M9InRleHQtb3V0ZXItdHNwYW4iPjx0c3BhbiBmb250LXdlaWdodD0ibm9ybWFsIiBjbGFzcz0idGV4dC1pbm5lci10c3BhbiIgZm9udC1zdHlsZT0ibm9ybWFsIj5VcGRhdGU8L3RzcGFuPjx0c3BhbiBmb250LXdlaWdodD0ibm9ybWFsIiBjbGFzcz0idGV4dC1pbm5lci10c3BhbiIgZm9udC1zdHlsZT0ibm9ybWFsIj4gU3RhdGUvQWN0aXZpdHk8L3RzcGFuPjwvdHNwYW4+PC90ZXh0PjwvZz48L2c+PC9nPjxnIHRyYW5zZm9ybT0idHJhbnNsYXRlKDE0MjYuNDcyNjU2MjUsIDk2Mi4yOTk5OTkyMzcwNjA1KSIgY2xhc3M9ImVkZ2VMYWJlbCI+PGcgdHJhbnNmb3JtPSJ0cmFuc2xhdGUoLTY2LjAzOTA2MjUsIC0xMC41KSIgY2xhc3M9ImxhYmVsIj48Zz48cmVjdCBoZWlnaHQ9IjIxIiB3aWR0aD0iMTMyLjA3ODEyNSIgeT0iMCIgeD0iLTIiIHN0eWxlPSIiIGNsYXNzPSJiYWNrZ3JvdW5kIj48L3JlY3Q+PHRleHQgc3R5bGU9IiIgeT0iLTEwLjEiPjx0c3BhbiBkeT0iMS4xZW0iIHk9Ii0wLjFlbSIgeD0iMCIgY2xhc3M9InRleHQtb3V0ZXItdHNwYW4iPjx0c3BhbiBmb250LXdlaWdodD0ibm9ybWFsIiBjbGFzcz0idGV4dC1pbm5lci10c3BhbiIgZm9udC1zdHlsZT0ibm9ybWFsIj5TYXZlL0dldDwvdHNwYW4+PHRzcGFuIGZvbnQtd2VpZ2h0PSJub3JtYWwiIGNsYXNzPSJ0ZXh0LWlubmVyLXRzcGFuIiBmb250LXN0eWxlPSJub3JtYWwiPiBTZXNzaW9uPC90c3Bhbj48L3RzcGFuPjwvdGV4dD48L2c+PC9nPjwvZz48ZyB0cmFuc2Zvcm09InRyYW5zbGF0ZSgxNTY4LjMwODU5Mzc1LCA5NjIuMjk5OTk5MjM3MDYwNSkiIGNsYXNzPSJlZGdlTGFiZWwiPjxnIHRyYW5zZm9ybT0idHJhbnNsYXRlKC01NS43OTY4NzUsIC0xMC41KSIgY2xhc3M9ImxhYmVsIj48Zz48cmVjdCBoZWlnaHQ9IjIxIiB3aWR0aD0iMTExLjU5Mzc1IiB5PSIwIiB4PSItMiIgc3R5bGU9IiIgY2xhc3M9ImJhY2tncm91bmQiPjwvcmVjdD48dGV4dCBzdHlsZT0iIiB5PSItMTAuMSI+PHRzcGFuIGR5PSIxLjFlbSIgeT0iLTAuMWVtIiB4PSIwIiBjbGFzcz0idGV4dC1vdXRlci10c3BhbiI+PHRzcGFuIGZvbnQtd2VpZ2h0PSJub3JtYWwiIGNsYXNzPSJ0ZXh0LWlubmVyLXRzcGFuIiBmb250LXN0eWxlPSJub3JtYWwiPlVwZGF0ZTwvdHNwYW4+PHRzcGFuIGZvbnQtd2VpZ2h0PSJub3JtYWwiIGNsYXNzPSJ0ZXh0LWlubmVyLXRzcGFuIiBmb250LXN0eWxlPSJub3JtYWwiPiBNZXRyaWNzPC90c3Bhbj48L3RzcGFuPjwvdGV4dD48L2c+PC9nPjwvZz48ZyB0cmFuc2Zvcm09InRyYW5zbGF0ZSg3NDkuMDQ2ODc1LCAxMDU4LjU5OTk5ODQ3NDEyMSkiIGNsYXNzPSJlZGdlTGFiZWwiPjxnIHRyYW5zZm9ybT0idHJhbnNsYXRlKC03MS4yNSwgLTEwLjUpIiBjbGFzcz0ibGFiZWwiPjxnPjxyZWN0IGhlaWdodD0iMjEiIHdpZHRoPSIxNDIuNSIgeT0iMCIgeD0iLTIiIHN0eWxlPSIiIGNsYXNzPSJiYWNrZ3JvdW5kIj48L3JlY3Q+PHRleHQgc3R5bGU9IiIgeT0iLTEwLjEiPjx0c3BhbiBkeT0iMS4xZW0iIHk9Ii0wLjFlbSIgeD0iMCIgY2xhc3M9InRleHQtb3V0ZXItdHNwYW4iPjx0c3BhbiBmb250LXdlaWdodD0ibm9ybWFsIiBjbGFzcz0idGV4dC1pbm5lci10c3BhbiIgZm9udC1zdHlsZT0ibm9ybWFsIj5SZWdpc3Rlci9VbnJlZ2lzdGVyPC90c3Bhbj48L3RzcGFuPjwvdGV4dD48L2c+PC9nPjwvZz48ZyB0cmFuc2Zvcm09InRyYW5zbGF0ZSg5MjAuMTcxODc1LCAxMDU4LjU5OTk5ODQ3NDEyMSkiIGNsYXNzPSJlZGdlTGFiZWwiPjxnIHRyYW5zZm9ybT0idHJhbnNsYXRlKC03OS44NzUsIC0xMC41KSIgY2xhc3M9ImxhYmVsIj48Zz48cmVjdCBoZWlnaHQ9IjIxIiB3aWR0aD0iMTU5Ljc1IiB5PSIwIiB4PSItMiIgc3R5bGU9IiIgY2xhc3M9ImJhY2tncm91bmQiPjwvcmVjdD48dGV4dCBzdHlsZT0iIiB5PSItMTAuMSI+PHRzcGFuIGR5PSIxLjFlbSIgeT0iLTAuMWVtIiB4PSIwIiBjbGFzcz0idGV4dC1vdXRlci10c3BhbiI+PHRzcGFuIGZvbnQtd2VpZ2h0PSJub3JtYWwiIGNsYXNzPSJ0ZXh0LWlubmVyLXRzcGFuIiBmb250LXN0eWxlPSJub3JtYWwiPlNlbmRzPC90c3Bhbj48dHNwYW4gZm9udC13ZWlnaHQ9Im5vcm1hbCIgY2xhc3M9InRleHQtaW5uZXItdHNwYW4iIGZvbnQtc3R5bGU9Im5vcm1hbCI+IENsaWVudE1lc3NhZ2U8L3RzcGFuPjwvdHNwYW4+PC90ZXh0PjwvZz48L2c+PC9nPjxnIHRyYW5zZm9ybT0idHJhbnNsYXRlKDE3MTguNTcwMzEyNSwgMTA1OC41OTk5OTg0NzQxMjEpIiBjbGFzcz0iZWRnZUxhYmVsIj48ZyB0cmFuc2Zvcm09InRyYW5zbGF0ZSgtOTguNTQ2ODc1LCAtMTkuMjk5OTk5MjM3MDYwNTQ3KSIgY2xhc3M9ImxhYmVsIj48Zz48cmVjdCBoZWlnaHQ9IjM4LjU5OTk5ODQ3NDEyMTA5NCIgd2lkdGg9IjE5Ny4wOTM3NSIgeT0iMCIgeD0iLTIiIHN0eWxlPSIiIGNsYXNzPSJiYWNrZ3JvdW5kIj48L3JlY3Q+PHRleHQgc3R5bGU9IiIgeT0iLTEwLjEiPjx0c3BhbiBkeT0iMS4xZW0iIHk9Ii0wLjFlbSIgeD0iMCIgY2xhc3M9InRleHQtb3V0ZXItdHNwYW4iPjx0c3BhbiBmb250LXdlaWdodD0ibm9ybWFsIiBjbGFzcz0idGV4dC1pbm5lci10c3BhbiIgZm9udC1zdHlsZT0ibm9ybWFsIj5TZW5kczwvdHNwYW4+PHRzcGFuIGZvbnQtd2VpZ2h0PSJub3JtYWwiIGNsYXNzPSJ0ZXh0LWlubmVyLXRzcGFuIiBmb250LXN0eWxlPSJub3JtYWwiPiBDbGllbnRBY3Rvck1lc3NhZ2U8L3RzcGFuPjwvdHNwYW4+PHRzcGFuIGR5PSIxLjFlbSIgeT0iMWVtIiB4PSIwIiBjbGFzcz0idGV4dC1vdXRlci10c3BhbiI+PHRzcGFuIGZvbnQtd2VpZ2h0PSJub3JtYWwiIGNsYXNzPSJ0ZXh0LWlubmVyLXRzcGFuIiBmb250LXN0eWxlPSJub3JtYWwiPihKU09OPC90c3Bhbj48dHNwYW4gZm9udC13ZWlnaHQ9Im5vcm1hbCIgY2xhc3M9InRleHQtaW5uZXItdHNwYW4iIGZvbnQtc3R5bGU9Im5vcm1hbCI+IFN0cmluZyk8L3RzcGFuPjwvdHNwYW4+PC90ZXh0PjwvZz48L2c+PC9nPjxnIHRyYW5zZm9ybT0idHJhbnNsYXRlKDU1Mi40ODgyODEyNSwgMTIwMS4xOTk5OTY5NDgyNDIyKSIgY2xhc3M9ImVkZ2VMYWJlbCI+PGcgdHJhbnNmb3JtPSJ0cmFuc2xhdGUoLTcxLjI1LCAtMTAuNSkiIGNsYXNzPSJsYWJlbCI+PGc+PHJlY3QgaGVpZ2h0PSIyMSIgd2lkdGg9IjE0Mi41IiB5PSIwIiB4PSItMiIgc3R5bGU9IiIgY2xhc3M9ImJhY2tncm91bmQiPjwvcmVjdD48dGV4dCBzdHlsZT0iIiB5PSItMTAuMSI+PHRzcGFuIGR5PSIxLjFlbSIgeT0iLTAuMWVtIiB4PSIwIiBjbGFzcz0idGV4dC1vdXRlci10c3BhbiI+PHRzcGFuIGZvbnQtd2VpZ2h0PSJub3JtYWwiIGNsYXNzPSJ0ZXh0LWlubmVyLXRzcGFuIiBmb250LXN0eWxlPSJub3JtYWwiPlJlZ2lzdGVyL1VucmVnaXN0ZXI8L3RzcGFuPjwvdHNwYW4+PC90ZXh0PjwvZz48L2c+PC9nPjxnIHRyYW5zZm9ybT0idHJhbnNsYXRlKDE3MzguNTcwMzEyNSwgMTIwMS4xOTk5OTY5NDgyNDIyKSIgY2xhc3M9ImVkZ2VMYWJlbCI+PGcgdHJhbnNmb3JtPSJ0cmFuc2xhdGUoLTc2LjI1NzgxMjUsIC0xMC41KSIgY2xhc3M9ImxhYmVsIj48Zz48cmVjdCBoZWlnaHQ9IjIxIiB3aWR0aD0iMTUyLjUxNTYyNSIgeT0iMCIgeD0iLTIiIHN0eWxlPSIiIGNsYXNzPSJiYWNrZ3JvdW5kIj48L3JlY3Q+PHRleHQgc3R5bGU9IiIgeT0iLTEwLjEiPjx0c3BhbiBkeT0iMS4xZW0iIHk9Ii0wLjFlbSIgeD0iMCIgY2xhc3M9InRleHQtb3V0ZXItdHNwYW4iPjx0c3BhbiBmb250LXdlaWdodD0ibm9ybWFsIiBjbGFzcz0idGV4dC1pbm5lci10c3BhbiIgZm9udC1zdHlsZT0ibm9ybWFsIj5VcGRhdGU8L3RzcGFuPjx0c3BhbiBmb250LXdlaWdodD0ibm9ybWFsIiBjbGFzcz0idGV4dC1pbm5lci10c3BhbiIgZm9udC1zdHlsZT0ibm9ybWFsIj4gU3RhdGUvQWN0aXZpdHk8L3RzcGFuPjwvdHNwYW4+PC90ZXh0PjwvZz48L2c+PC9nPjxnIHRyYW5zZm9ybT0idHJhbnNsYXRlKDE4OTAuNjI1LCAxMjAxLjE5OTk5Njk0ODI0MjIpIiBjbGFzcz0iZWRnZUxhYmVsIj48ZyB0cmFuc2Zvcm09InRyYW5zbGF0ZSgtNTUuNzk2ODc1LCAtMTAuNSkiIGNsYXNzPSJsYWJlbCI+PGc+PHJlY3QgaGVpZ2h0PSIyMSIgd2lkdGg9IjExMS41OTM3NSIgeT0iMCIgeD0iLTIiIHN0eWxlPSIiIGNsYXNzPSJiYWNrZ3JvdW5kIj48L3JlY3Q+PHRleHQgc3R5bGU9IiIgeT0iLTEwLjEiPjx0c3BhbiBkeT0iMS4xZW0iIHk9Ii0wLjFlbSIgeD0iMCIgY2xhc3M9InRleHQtb3V0ZXItdHNwYW4iPjx0c3BhbiBmb250LXdlaWdodD0ibm9ybWFsIiBjbGFzcz0idGV4dC1pbm5lci10c3BhbiIgZm9udC1zdHlsZT0ibm9ybWFsIj5VcGRhdGU8L3RzcGFuPjx0c3BhbiBmb250LXdlaWdodD0ibm9ybWFsIiBjbGFzcz0idGV4dC1pbm5lci10c3BhbiIgZm9udC1zdHlsZT0ibm9ybWFsIj4gTWV0cmljczwvdHNwYW4+PC90c3Bhbj48L3RleHQ+PC9nPjwvZz48L2c+PGcgdHJhbnNmb3JtPSJ0cmFuc2xhdGUoMTk4MS44NzUsIDEyOTcuNDk5OTk2MTg1MzAyNykiIGNsYXNzPSJlZGdlTGFiZWwiPjxnIHRyYW5zZm9ybT0idHJhbnNsYXRlKC03MS4yNSwgLTEwLjUpIiBjbGFzcz0ibGFiZWwiPjxnPjxyZWN0IGhlaWdodD0iMjEiIHdpZHRoPSIxNDIuNSIgeT0iMCIgeD0iLTIiIHN0eWxlPSIiIGNsYXNzPSJiYWNrZ3JvdW5kIj48L3JlY3Q+PHRleHQgc3R5bGU9IiIgeT0iLTEwLjEiPjx0c3BhbiBkeT0iMS4xZW0iIHk9Ii0wLjFlbSIgeD0iMCIgY2xhc3M9InRleHQtb3V0ZXItdHNwYW4iPjx0c3BhbiBmb250LXdlaWdodD0ibm9ybWFsIiBjbGFzcz0idGV4dC1pbm5lci10c3BhbiIgZm9udC1zdHlsZT0ibm9ybWFsIj5SZWdpc3Rlci9VbnJlZ2lzdGVyPC90c3Bhbj48L3RzcGFuPjwvdGV4dD48L2c+PC9nPjwvZz48ZyB0cmFuc2Zvcm09InRyYW5zbGF0ZSgyMjAuNDI5Njg3NSwgMTI5Ny40OTk5OTYxODUzMDI3KSIgY2xhc3M9ImVkZ2VMYWJlbCI+PGcgdHJhbnNmb3JtPSJ0cmFuc2xhdGUoLTk4LjU1ODU5Mzc1LCAtMTkuMjk5OTk5MjM3MDYwNTQ3KSIgY2xhc3M9ImxhYmVsIj48Zz48cmVjdCBoZWlnaHQ9IjM4LjU5OTk5ODQ3NDEyMTA5NCIgd2lkdGg9IjE5Ny4xMTcxODc1IiB5PSIwIiB4PSItMiIgc3R5bGU9IiIgY2xhc3M9ImJhY2tncm91bmQiPjwvcmVjdD48dGV4dCBzdHlsZT0iIiB5PSItMTAuMSI+PHRzcGFuIGR5PSIxLjFlbSIgeT0iLTAuMWVtIiB4PSIwIiBjbGFzcz0idGV4dC1vdXRlci10c3BhbiI+PHRzcGFuIGZvbnQtd2VpZ2h0PSJub3JtYWwiIGNsYXNzPSJ0ZXh0LWlubmVyLXRzcGFuIiBmb250LXN0eWxlPSJub3JtYWwiPlNlbmRzPC90c3Bhbj48dHNwYW4gZm9udC13ZWlnaHQ9Im5vcm1hbCIgY2xhc3M9InRleHQtaW5uZXItdHNwYW4iIGZvbnQtc3R5bGU9Im5vcm1hbCI+IEFnZW50QWN0b3JNZXNzYWdlPC90c3Bhbj48L3RzcGFuPjx0c3BhbiBkeT0iMS4xZW0iIHk9IjFlbSIgeD0iMCIgY2xhc3M9InRleHQtb3V0ZXItdHNwYW4iPjx0c3BhbiBmb250LXdlaWdodD0ibm9ybWFsIiBjbGFzcz0idGV4dC1pbm5lci10c3BhbiIgZm9udC1zdHlsZT0ibm9ybWFsIj4oSlNPTjwvdHNwYW4+PHRzcGFuIGZvbnQtd2VpZ2h0PSJub3JtYWwiIGNsYXNzPSJ0ZXh0LWlubmVyLXRzcGFuIiBmb250LXN0eWxlPSJub3JtYWwiPiBTdHJpbmcpPC90c3Bhbj48L3RzcGFuPjwvdGV4dD48L2c+PC9nPjwvZz48ZyB0cmFuc2Zvcm09InRyYW5zbGF0ZSgyMTUzLjAxMTcxODc1LCAxMjk3LjQ5OTk5NjE4NTMwMjcpIiBjbGFzcz0iZWRnZUxhYmVsIj48ZyB0cmFuc2Zvcm09InRyYW5zbGF0ZSgtNzkuODg2NzE4NzUsIC0xMC41KSIgY2xhc3M9ImxhYmVsIj48Zz48cmVjdCBoZWlnaHQ9IjIxIiB3aWR0aD0iMTU5Ljc3MzQzNzUiIHk9IjAiIHg9Ii0yIiBzdHlsZT0iIiBjbGFzcz0iYmFja2dyb3VuZCI+PC9yZWN0Pjx0ZXh0IHN0eWxlPSIiIHk9Ii0xMC4xIj48dHNwYW4gZHk9IjEuMWVtIiB5PSItMC4xZW0iIHg9IjAiIGNsYXNzPSJ0ZXh0LW91dGVyLXRzcGFuIj48dHNwYW4gZm9udC13ZWlnaHQ9Im5vcm1hbCIgY2xhc3M9InRleHQtaW5uZXItdHNwYW4iIGZvbnQtc3R5bGU9Im5vcm1hbCI+U2VuZHM8L3RzcGFuPjx0c3BhbiBmb250LXdlaWdodD0ibm9ybWFsIiBjbGFzcz0idGV4dC1pbm5lci10c3BhbiIgZm9udC1zdHlsZT0ibm9ybWFsIj4gQWdlbnRNZXNzYWdlPC90c3Bhbj48L3RzcGFuPjwvdGV4dD48L2c+PC9nPjwvZz48ZyB0cmFuc2Zvcm09InRyYW5zbGF0ZSgxMjU5LjY2Nzk2ODc1LCAxMTI5Ljg5OTk5NzcxMTE4MTYpIiBjbGFzcz0iZWRnZUxhYmVsIj48ZyB0cmFuc2Zvcm09InRyYW5zbGF0ZSgtNzcuNDI1NzgxMjUsIC0xOS4yOTk5OTkyMzcwNjA1NDcpIiBjbGFzcz0ibGFiZWwiPjxnPjxyZWN0IGhlaWdodD0iMzguNTk5OTk4NDc0MTIxMDk0IiB3aWR0aD0iMTU0Ljg1MTU2MjUiIHk9IjAiIHg9Ii0yIiBzdHlsZT0iIiBjbGFzcz0iYmFja2dyb3VuZCI+PC9yZWN0Pjx0ZXh0IHN0eWxlPSIiIHk9Ii0xMC4xIj48dHNwYW4gZHk9IjEuMWVtIiB5PSItMC4xZW0iIHg9IjAiIGNsYXNzPSJ0ZXh0LW91dGVyLXRzcGFuIj48dHNwYW4gZm9udC13ZWlnaHQ9Im5vcm1hbCIgY2xhc3M9InRleHQtaW5uZXItdHNwYW4iIGZvbnQtc3R5bGU9Im5vcm1hbCI+Tm90aWZpZXM8L3RzcGFuPjx0c3BhbiBmb250LXdlaWdodD0ibm9ybWFsIiBjbGFzcz0idGV4dC1pbm5lci10c3BhbiIgZm9udC1zdHlsZT0ibm9ybWFsIj4gKENsaWVudC9BZ2VudDwvdHNwYW4+PC90c3Bhbj48dHNwYW4gZHk9IjEuMWVtIiB5PSIxZW0iIHg9IjAiIGNsYXNzPSJ0ZXh0LW91dGVyLXRzcGFuIj48dHNwYW4gZm9udC13ZWlnaHQ9Im5vcm1hbCIgY2xhc3M9InRleHQtaW5uZXItdHNwYW4iIGZvbnQtc3R5bGU9Im5vcm1hbCI+RGlzY29ubmVjdGVkKTwvdHNwYW4+PC90c3Bhbj48L3RleHQ+PC9nPjwvZz48L2c+PGcgdHJhbnNmb3JtPSJ0cmFuc2xhdGUoNDM1LjczODI4MTI1LCAxMjk3LjQ5OTk5NjE4NTMwMjcpIiBjbGFzcz0iZWRnZUxhYmVsIj48ZyB0cmFuc2Zvcm09InRyYW5zbGF0ZSgtOTYuNzUsIC0xMC41KSIgY2xhc3M9ImxhYmVsIj48Zz48cmVjdCBoZWlnaHQ9IjIxIiB3aWR0aD0iMTkzLjUiIHk9IjAiIHg9Ii0yIiBzdHlsZT0iIiBjbGFzcz0iYmFja2dyb3VuZCI+PC9yZWN0Pjx0ZXh0IHN0eWxlPSIiIHk9Ii0xMC4xIj48dHNwYW4gZHk9IjEuMWVtIiB5PSItMC4xZW0iIHg9IjAiIGNsYXNzPSJ0ZXh0LW91dGVyLXRzcGFuIj48dHNwYW4gZm9udC13ZWlnaHQ9Im5vcm1hbCIgY2xhc3M9InRleHQtaW5uZXItdHNwYW4iIGZvbnQtc3R5bGU9Im5vcm1hbCI+Rm9yd2FyZHM8L3RzcGFuPjx0c3BhbiBmb250LXdlaWdodD0ibm9ybWFsIiBjbGFzcz0idGV4dC1pbm5lci10c3BhbiIgZm9udC1zdHlsZT0ibm9ybWFsIj4gU3lzdGVtTWVzc2FnZTwvdHNwYW4+PC90c3Bhbj48L3RleHQ+PC9nPjwvZz48L2c+PGcgdHJhbnNmb3JtPSJ0cmFuc2xhdGUoMjc3NC4xNzE4NzUsIDUyNy41KSIgY2xhc3M9ImVkZ2VMYWJlbCI+PGcgdHJhbnNmb3JtPSJ0cmFuc2xhdGUoLTQzLjAzOTA2MjUsIC0xMC41KSIgY2xhc3M9ImxhYmVsIj48Zz48cmVjdCBoZWlnaHQ9IjIxIiB3aWR0aD0iODYuMDc4MTI1IiB5PSIwIiB4PSItMiIgc3R5bGU9IiIgY2xhc3M9ImJhY2tncm91bmQiPjwvcmVjdD48dGV4dCBzdHlsZT0iIiB5PSItMTAuMSI+PHRzcGFuIGR5PSIxLjFlbSIgeT0iLTAuMWVtIiB4PSIwIiBjbGFzcz0idGV4dC1vdXRlci10c3BhbiI+PHRzcGFuIGZvbnQtd2VpZ2h0PSJub3JtYWwiIGNsYXNzPSJ0ZXh0LWlubmVyLXRzcGFuIiBmb250LXN0eWxlPSJub3JtYWwiPldlYlNvY2tldDwvdHNwYW4+PC90c3Bhbj48L3RleHQ+PC9nPjwvZz48L2c+PGcgdHJhbnNmb3JtPSJ0cmFuc2xhdGUoOTI3Ljc2MzY3MTg3NSwgNzAyLjUpIiBjbGFzcz0iZWRnZUxhYmVsIj48ZyB0cmFuc2Zvcm09InRyYW5zbGF0ZSgtNzcuNDQ1MzEyNSwgLTEwLjUpIiBjbGFzcz0ibGFiZWwiPjxnPjxyZWN0IGhlaWdodD0iMjEiIHdpZHRoPSIxNTQuODkwNjI1IiB5PSIwIiB4PSItMiIgc3R5bGU9IiIgY2xhc3M9ImJhY2tncm91bmQiPjwvcmVjdD48dGV4dCBzdHlsZT0iIiB5PSItMTAuMSI+PHRzcGFuIGR5PSIxLjFlbSIgeT0iLTAuMWVtIiB4PSIwIiBjbGFzcz0idGV4dC1vdXRlci10c3BhbiI+PHRzcGFuIGZvbnQtd2VpZ2h0PSJub3JtYWwiIGNsYXNzPSJ0ZXh0LWlubmVyLXRzcGFuIiBmb250LXN0eWxlPSJub3JtYWwiPldlYlNvY2tldDwvdHNwYW4+PHRzcGFuIGZvbnQtd2VpZ2h0PSJub3JtYWwiIGNsYXNzPSJ0ZXh0LWlubmVyLXRzcGFuIiBmb250LXN0eWxlPSJub3JtYWwiPiAoUHJveGllZCk8L3RzcGFuPjwvdHNwYW4+PC90ZXh0PjwvZz48L2c+PC9nPjxnIHRyYW5zZm9ybT0idHJhbnNsYXRlKDIwMTQuNDU3MDMxMjUsIDcwMi41KSIgY2xhc3M9ImVkZ2VMYWJlbCI+PGcgdHJhbnNmb3JtPSJ0cmFuc2xhdGUoLTQzLjAzOTA2MjUsIC0xMC41KSIgY2xhc3M9ImxhYmVsIj48Zz48cmVjdCBoZWlnaHQ9IjIxIiB3aWR0aD0iODYuMDc4MTI1IiB5PSIwIiB4PSItMiIgc3R5bGU9IiIgY2xhc3M9ImJhY2tncm91bmQiPjwvcmVjdD48dGV4dCBzdHlsZT0iIiB5PSItMTAuMSI+PHRzcGFuIGR5PSIxLjFlbSIgeT0iLTAuMWVtIiB4PSIwIiBjbGFzcz0idGV4dC1vdXRlci10c3BhbiI+PHRzcGFuIGZvbnQtd2VpZ2h0PSJub3JtYWwiIGNsYXNzPSJ0ZXh0LWlubmVyLXRzcGFuIiBmb250LXN0eWxlPSJub3JtYWwiPldlYlNvY2tldDwvdHNwYW4+PC90c3Bhbj48L3RleHQ+PC9nPjwvZz48L2c+PC9nPjxnIGNsYXNzPSJub2RlcyI+PGcgdHJhbnNmb3JtPSJ0cmFuc2xhdGUoMzExNy4wOTM3NSwgNDQwKSIgaWQ9ImZsb3djaGFydC1DbGllbnRBcHAtMCIgY2xhc3M9Im5vZGUgZGVmYXVsdCBjbGllbnQiPjxyZWN0IGhlaWdodD0iNTQiIHdpZHRoPSIxMzMuODI4MTI1IiB5PSItMjciIHg9Ii02Ni45MTQwNjI1IiBzdHlsZT0iZmlsbDojY2ZjICFpbXBvcnRhbnQ7c3Ryb2tlOiMzMzMgIWltcG9ydGFudDtzdHJva2Utd2lkdGg6MnB4ICFpbXBvcnRhbnQiIGNsYXNzPSJiYXNpYyBsYWJlbC1jb250YWluZXIiPjwvcmVjdD48ZyB0cmFuc2Zvcm09InRyYW5zbGF0ZSgtMzYuOTE0MDYyNSwgLTEyKSIgc3R5bGU9IiIgY2xhc3M9ImxhYmVsIj48cmVjdD48L3JlY3Q+PGZvcmVpZ25PYmplY3QgaGVpZ2h0PSIyNCIgd2lkdGg9IjczLjgyODEyNSI+PGRpdiBzdHlsZT0iZGlzcGxheTogdGFibGUtY2VsbDsgd2hpdGUtc3BhY2U6IG5vd3JhcDsgbGluZS1oZWlnaHQ6IDEuNTsgbWF4LXdpZHRoOiAyMDBweDsgdGV4dC1hbGlnbjogY2VudGVyOyIgeG1sbnM9Imh0dHA6Ly93d3cudzMub3JnLzE5OTkveGh0bWwiPjxzcGFuIGNsYXNzPSJub2RlTGFiZWwiPjxwPlJlYWN0IEFwcDwvcD48L3NwYW4+PC9kaXY+PC9mb3JlaWduT2JqZWN0PjwvZz48L2c+PGcgdHJhbnNmb3JtPSJ0cmFuc2xhdGUoMjY0OS42NDA2MjUsIDYwKSIgaWQ9ImZsb3djaGFydC1MQl9XZWItMSIgY2xhc3M9Im5vZGUgZGVmYXVsdCI+PHJlY3QgaGVpZ2h0PSI1NCIgd2lkdGg9IjIxMy44NzUiIHk9Ii0yNyIgeD0iLTEwNi45Mzc1IiBzdHlsZT0iIiBjbGFzcz0iYmFzaWMgbGFiZWwtY29udGFpbmVyIj48L3JlY3Q+PGcgdHJhbnNmb3JtPSJ0cmFuc2xhdGUoLTc2LjkzNzUsIC0xMikiIHN0eWxlPSIiIGNsYXNzPSJsYWJlbCI+PHJlY3Q+PC9yZWN0Pjxmb3JlaWduT2JqZWN0IGhlaWdodD0iMjQiIHdpZHRoPSIxNTMuODc1Ij48ZGl2IHN0eWxlPSJkaXNwbGF5OiB0YWJsZS1jZWxsOyB3aGl0ZS1zcGFjZTogbm93cmFwOyBsaW5lLWhlaWdodDogMS41OyBtYXgtd2lkdGg6IDIwMHB4OyB0ZXh0LWFsaWduOiBjZW50ZXI7IiB4bWxucz0iaHR0cDovL3d3dy53My5vcmcvMTk5OS94aHRtbCI+PHNwYW4gY2xhc3M9Im5vZGVMYWJlbCI+PHA+TG9hZCBCYWxhbmNlciAvIEVudHJ5PC9wPjwvc3Bhbj48L2Rpdj48L2ZvcmVpZ25PYmplY3Q+PC9nPjwvZz48ZyB0cmFuc2Zvcm09InRyYW5zbGF0ZSgyNjQ5LjY0MDYyNSwgMTY0KSIgaWQ9ImZsb3djaGFydC1XZWJTZXJ2ZXJNYWluLTIiIGNsYXNzPSJub2RlIGRlZmF1bHQgd2ViIj48cmVjdCBoZWlnaHQ9IjU0IiB3aWR0aD0iMjE0LjQwNjI1IiB5PSItMjciIHg9Ii0xMDcuMjAzMTI1IiBzdHlsZT0iZmlsbDojY2NmICFpbXBvcnRhbnQ7c3Ryb2tlOiMzMzMgIWltcG9ydGFudDtzdHJva2Utd2lkdGg6MnB4ICFpbXBvcnRhbnQiIGNsYXNzPSJiYXNpYyBsYWJlbC1jb250YWluZXIiPjwvcmVjdD48ZyB0cmFuc2Zvcm09InRyYW5zbGF0ZSgtNzcuMjAzMTI1LCAtMTIpIiBzdHlsZT0iIiBjbGFzcz0ibGFiZWwiPjxyZWN0PjwvcmVjdD48Zm9yZWlnbk9iamVjdCBoZWlnaHQ9IjI0IiB3aWR0aD0iMTU0LjQwNjI1Ij48ZGl2IHN0eWxlPSJkaXNwbGF5OiB0YWJsZS1jZWxsOyB3aGl0ZS1zcGFjZTogbm93cmFwOyBsaW5lLWhlaWdodDogMS41OyBtYXgtd2lkdGg6IDIwMHB4OyB0ZXh0LWFsaWduOiBjZW50ZXI7IiB4bWxucz0iaHR0cDovL3d3dy53My5vcmcvMTk5OS94aHRtbCI+PHNwYW4gY2xhc3M9Im5vZGVMYWJlbCI+PHA+SFRUUCBTZXJ2ZXI6IG1haW4ucnM8L3A+PC9zcGFuPjwvZGl2PjwvZm9yZWlnbk9iamVjdD48L2c+PC9nPjxnIHRyYW5zZm9ybT0idHJhbnNsYXRlKDI1OTAuMDI3MzQzNzUsIDYxNSkiIGlkPSJmbG93Y2hhcnQtUHJveHlBY3Rvci02IiBjbGFzcz0ibm9kZSBkZWZhdWx0IGFjdG9yIj48cmVjdCBoZWlnaHQ9IjU0IiB3aWR0aD0iMjAyLjg0Mzc1IiB5PSItMjciIHg9Ii0xMDEuNDIxODc1IiBzdHlsZT0iZmlsbDojZjlmICFpbXBvcnRhbnQ7c3Ryb2tlOiMzMzMgIWltcG9ydGFudDtzdHJva2Utd2lkdGg6MnB4ICFpbXBvcnRhbnQiIGNsYXNzPSJiYXNpYyBsYWJlbC1jb250YWluZXIiPjwvcmVjdD48ZyB0cmFuc2Zvcm09InRyYW5zbGF0ZSgtNzEuNDIxODc1LCAtMTIpIiBzdHlsZT0iIiBjbGFzcz0ibGFiZWwiPjxyZWN0PjwvcmVjdD48Zm9yZWlnbk9iamVjdCBoZWlnaHQ9IjI0IiB3aWR0aD0iMTQyLjg0Mzc1Ij48ZGl2IHN0eWxlPSJkaXNwbGF5OiB0YWJsZS1jZWxsOyB3aGl0ZS1zcGFjZTogbm93cmFwOyBsaW5lLWhlaWdodDogMS41OyBtYXgtd2lkdGg6IDIwMHB4OyB0ZXh0LWFsaWduOiBjZW50ZXI7IiB4bWxucz0iaHR0cDovL3d3dy53My5vcmcvMTk5OS94aHRtbCI+PHNwYW4gY2xhc3M9Im5vZGVMYWJlbCI+PHA+UHJveHlBY3RvcjogcHJveHkucnM8L3A+PC9zcGFuPjwvZGl2PjwvZm9yZWlnbk9iamVjdD48L2c+PC9nPjxnIHRyYW5zZm9ybT0idHJhbnNsYXRlKDI0MTUuNzAzMTI1LCAyODkpIiBpZD0iZmxvd2NoYXJ0LUFwaUhhbmRsZXJzLTgiIGNsYXNzPSJub2RlIGRlZmF1bHQgd2ViIj48cmVjdCBoZWlnaHQ9IjU0IiB3aWR0aD0iMjE1LjYwOTM3NSIgeT0iLTI3IiB4PSItMTA3LjgwNDY4NzUiIHN0eWxlPSJmaWxsOiNjY2YgIWltcG9ydGFudDtzdHJva2U6IzMzMyAhaW1wb3J0YW50O3N0cm9rZS13aWR0aDoycHggIWltcG9ydGFudCIgY2xhc3M9ImJhc2ljIGxhYmVsLWNvbnRhaW5lciI+PC9yZWN0PjxnIHRyYW5zZm9ybT0idHJhbnNsYXRlKC03Ny44MDQ2ODc1LCAtMTIpIiBzdHlsZT0iIiBjbGFzcz0ibGFiZWwiPjxyZWN0PjwvcmVjdD48Zm9yZWlnbk9iamVjdCBoZWlnaHQ9IjI0IiB3aWR0aD0iMTU1LjYwOTM3NSI+PGRpdiBzdHlsZT0iZGlzcGxheTogdGFibGUtY2VsbDsgd2hpdGUtc3BhY2U6IG5vd3JhcDsgbGluZS1oZWlnaHQ6IDEuNTsgbWF4LXdpZHRoOiAyMDBweDsgdGV4dC1hbGlnbjogY2VudGVyOyIgeG1sbnM9Imh0dHA6Ly93d3cudzMub3JnLzE5OTkveGh0bWwiPjxzcGFuIGNsYXNzPSJub2RlTGFiZWwiPjxwPkFQSSBIYW5kbGVyczogbWFpbi5yczwvcD48L3NwYW4+PC9kaXY+PC9mb3JlaWduT2JqZWN0PjwvZz48L2c+PGcgdHJhbnNmb3JtPSJ0cmFuc2xhdGUoMjgzNS4wMzEyNSwgMjg5KSIgaWQ9ImZsb3djaGFydC1TdGF0aWNTZXJ2ZXItOSIgY2xhc3M9Im5vZGUgZGVmYXVsdCB3ZWIiPjxyZWN0IGhlaWdodD0iNTQiIHdpZHRoPSIyMzkuNjA5Mzc1IiB5PSItMjciIHg9Ii0xMTkuODA0Njg3NSIgc3R5bGU9ImZpbGw6I2NjZiAhaW1wb3J0YW50O3N0cm9rZTojMzMzICFpbXBvcnRhbnQ7c3Ryb2tlLXdpZHRoOjJweCAhaW1wb3J0YW50IiBjbGFzcz0iYmFzaWMgbGFiZWwtY29udGFpbmVyIj48L3JlY3Q+PGcgdHJhbnNmb3JtPSJ0cmFuc2xhdGUoLTg5LjgwNDY4NzUsIC0xMikiIHN0eWxlPSIiIGNsYXNzPSJsYWJlbCI+PHJlY3Q+PC9yZWN0Pjxmb3JlaWduT2JqZWN0IGhlaWdodD0iMjQiIHdpZHRoPSIxNzkuNjA5Mzc1Ij48ZGl2IHN0eWxlPSJkaXNwbGF5OiB0YWJsZS1jZWxsOyB3aGl0ZS1zcGFjZTogbm93cmFwOyBsaW5lLWhlaWdodDogMS41OyBtYXgtd2lkdGg6IDIwMHB4OyB0ZXh0LWFsaWduOiBjZW50ZXI7IiB4bWxucz0iaHR0cDovL3d3dy53My5vcmcvMTk5OS94aHRtbCI+PHNwYW4gY2xhc3M9Im5vZGVMYWJlbCI+PHA+U3RhdGljIEZpbGVzOiBzdGF0aWNfZmlsZXMucnM8L3A+PC9zcGFuPjwvZGl2PjwvZm9yZWlnbk9iamVjdD48L2c+PC9nPjxnIHRyYW5zZm9ybT0idHJhbnNsYXRlKDE0OS45Mzc1LCA2MTUpIiBpZD0iZmxvd2NoYXJ0LUxCX1dTLTEzIiBjbGFzcz0ibm9kZSBkZWZhdWx0Ij48cmVjdCBoZWlnaHQ9IjU0IiB3aWR0aD0iMjEzLjg3NSIgeT0iLTI3IiB4PSItMTA2LjkzNzUiIHN0eWxlPSIiIGNsYXNzPSJiYXNpYyBsYWJlbC1jb250YWluZXIiPjwvcmVjdD48ZyB0cmFuc2Zvcm09InRyYW5zbGF0ZSgtNzYuOTM3NSwgLTEyKSIgc3R5bGU9IiIgY2xhc3M9ImxhYmVsIj48cmVjdD48L3JlY3Q+PGZvcmVpZ25PYmplY3QgaGVpZ2h0PSIyNCIgd2lkdGg9IjE1My44NzUiPjxkaXYgc3R5bGU9ImRpc3BsYXk6IHRhYmxlLWNlbGw7IHdoaXRlLXNwYWNlOiBub3dyYXA7IGxpbmUtaGVpZ2h0OiAxLjU7IG1heC13aWR0aDogMjAwcHg7IHRleHQtYWxpZ246IGNlbnRlcjsiIHhtbG5zPSJodHRwOi8vd3d3LnczLm9yZy8xOTk5L3hodG1sIj48c3BhbiBjbGFzcz0ibm9kZUxhYmVsIj48cD5Mb2FkIEJhbGFuY2VyIC8gRW50cnk8L3A+PC9zcGFuPjwvZGl2PjwvZm9yZWlnbk9iamVjdD48L2c+PC9nPjxnIHRyYW5zZm9ybT0idHJhbnNsYXRlKDkxMy4wNDg4MjgxMjUsIDc2NSkiIGlkPSJmbG93Y2hhcnQtV1NTZXJ2ZXJNYWluLTE0IiBjbGFzcz0ibm9kZSBkZWZhdWx0IHdlYiI+PHJlY3QgaGVpZ2h0PSI1NCIgd2lkdGg9IjI1NC40Mzc1IiB5PSItMjciIHg9Ii0xMjcuMjE4NzUiIHN0eWxlPSJmaWxsOiNjY2YgIWltcG9ydGFudDtzdHJva2U6IzMzMyAhaW1wb3J0YW50O3N0cm9rZS13aWR0aDoycHggIWltcG9ydGFudCIgY2xhc3M9ImJhc2ljIGxhYmVsLWNvbnRhaW5lciI+PC9yZWN0PjxnIHRyYW5zZm9ybT0idHJhbnNsYXRlKC05Ny4yMTg3NSwgLTEyKSIgc3R5bGU9IiIgY2xhc3M9ImxhYmVsIj48cmVjdD48L3JlY3Q+PGZvcmVpZ25PYmplY3QgaGVpZ2h0PSIyNCIgd2lkdGg9IjE5NC40Mzc1Ij48ZGl2IHN0eWxlPSJkaXNwbGF5OiB0YWJsZS1jZWxsOyB3aGl0ZS1zcGFjZTogbm93cmFwOyBsaW5lLWhlaWdodDogMS41OyBtYXgtd2lkdGg6IDIwMHB4OyB0ZXh0LWFsaWduOiBjZW50ZXI7IiB4bWxucz0iaHR0cDovL3d3dy53My5vcmcvMTk5OS94aHRtbCI+PHNwYW4gY2xhc3M9Im5vZGVMYWJlbCI+PHA+V2ViU29ja2V0IFNlcnZlcjogbWFpbi5yczwvcD48L3NwYW4+PC9kaXY+PC9mb3JlaWduT2JqZWN0PjwvZz48L2c+PGcgdHJhbnNmb3JtPSJ0cmFuc2xhdGUoMTMzMi40ODgyODEyNSwgODkxKSIgaWQ9ImZsb3djaGFydC1DbGllbnRTZXNzaW9uQWN0b3ItMTYiIGNsYXNzPSJub2RlIGRlZmF1bHQgYWN0b3IiPjxyZWN0IGhlaWdodD0iNTQiIHdpZHRoPSIxOTUuMTcxODc1IiB5PSItMjciIHg9Ii05Ny41ODU5Mzc1IiBzdHlsZT0iZmlsbDojZjlmICFpbXBvcnRhbnQ7c3Ryb2tlOiMzMzMgIWltcG9ydGFudDtzdHJva2Utd2lkdGg6MnB4ICFpbXBvcnRhbnQiIGNsYXNzPSJiYXNpYyBsYWJlbC1jb250YWluZXIiPjwvcmVjdD48ZyB0cmFuc2Zvcm09InRyYW5zbGF0ZSgtNjcuNTg1OTM3NSwgLTEyKSIgc3R5bGU9IiIgY2xhc3M9ImxhYmVsIj48cmVjdD48L3JlY3Q+PGZvcmVpZ25PYmplY3QgaGVpZ2h0PSIyNCIgd2lkdGg9IjEzNS4xNzE4NzUiPjxkaXYgc3R5bGU9ImRpc3BsYXk6IHRhYmxlLWNlbGw7IHdoaXRlLXNwYWNlOiBub3dyYXA7IGxpbmUtaGVpZ2h0OiAxLjU7IG1heC13aWR0aDogMjAwcHg7IHRleHQtYWxpZ246IGNlbnRlcjsiIHhtbG5zPSJodHRwOi8vd3d3LnczLm9yZy8xOTk5L3hodG1sIj48c3BhbiBjbGFzcz0ibm9kZUxhYmVsIj48cD5DbGllbnRTZXNzaW9uQWN0b3I8L3A+PC9zcGFuPjwvZGl2PjwvZm9yZWlnbk9iamVjdD48L2c+PC9nPjxnIHRyYW5zZm9ybT0idHJhbnNsYXRlKDExNzMuODM5ODQzNzUsIDEzNjguNzk5OTk1NDIyMzYzMykiIGlkPSJmbG93Y2hhcnQtQWdlbnRBY3Rvci0xOCIgY2xhc3M9Im5vZGUgZGVmYXVsdCBhY3RvciI+PHJlY3QgaGVpZ2h0PSI1NCIgd2lkdGg9IjEzOS4xNTYyNSIgeT0iLTI3IiB4PSItNjkuNTc4MTI1IiBzdHlsZT0iZmlsbDojZjlmICFpbXBvcnRhbnQ7c3Ryb2tlOiMzMzMgIWltcG9ydGFudDtzdHJva2Utd2lkdGg6MnB4ICFpbXBvcnRhbnQiIGNsYXNzPSJiYXNpYyBsYWJlbC1jb250YWluZXIiPjwvcmVjdD48ZyB0cmFuc2Zvcm09InRyYW5zbGF0ZSgtMzkuNTc4MTI1LCAtMTIpIiBzdHlsZT0iIiBjbGFzcz0ibGFiZWwiPjxyZWN0PjwvcmVjdD48Zm9yZWlnbk9iamVjdCBoZWlnaHQ9IjI0IiB3aWR0aD0iNzkuMTU2MjUiPjxkaXYgc3R5bGU9ImRpc3BsYXk6IHRhYmxlLWNlbGw7IHdoaXRlLXNwYWNlOiBub3dyYXA7IGxpbmUtaGVpZ2h0OiAxLjU7IG1heC13aWR0aDogMjAwcHg7IHRleHQtYWxpZ246IGNlbnRlcjsiIHhtbG5zPSJodHRwOi8vd3d3LnczLm9yZy8xOTk5L3hodG1sIj48c3BhbiBjbGFzcz0ibm9kZUxhYmVsIj48cD5BZ2VudEFjdG9yPC9wPjwvc3Bhbj48L2Rpdj48L2ZvcmVpZ25PYmplY3Q+PC9nPjwvZz48ZyB0cmFuc2Zvcm09InRyYW5zbGF0ZSgxMjU5LjY2Nzk2ODc1LCAxMDU4LjU5OTk5ODQ3NDEyMSkiIGlkPSJmbG93Y2hhcnQtU3RhdGVNYW5hZ2VyLTE5IiBjbGFzcz0ibm9kZSBkZWZhdWx0IGFjdG9yIj48cmVjdCBoZWlnaHQ9IjU0IiB3aWR0aD0iMTk3Ljg1OTM3NSIgeT0iLTI3IiB4PSItOTguOTI5Njg3NSIgc3R5bGU9ImZpbGw6I2Y5ZiAhaW1wb3J0YW50O3N0cm9rZTojMzMzICFpbXBvcnRhbnQ7c3Ryb2tlLXdpZHRoOjJweCAhaW1wb3J0YW50IiBjbGFzcz0iYmFzaWMgbGFiZWwtY29udGFpbmVyIj48L3JlY3Q+PGcgdHJhbnNmb3JtPSJ0cmFuc2xhdGUoLTY4LjkyOTY4NzUsIC0xMikiIHN0eWxlPSIiIGNsYXNzPSJsYWJlbCI+PHJlY3Q+PC9yZWN0Pjxmb3JlaWduT2JqZWN0IGhlaWdodD0iMjQiIHdpZHRoPSIxMzcuODU5Mzc1Ij48ZGl2IHN0eWxlPSJkaXNwbGF5OiB0YWJsZS1jZWxsOyB3aGl0ZS1zcGFjZTogbm93cmFwOyBsaW5lLWhlaWdodDogMS41OyBtYXgtd2lkdGg6IDIwMHB4OyB0ZXh0LWFsaWduOiBjZW50ZXI7IiB4bWxucz0iaHR0cDovL3d3dy53My5vcmcvMTk5OS94aHRtbCI+PHNwYW4gY2xhc3M9Im5vZGVMYWJlbCI+PHA+U3RhdGVNYW5hZ2VyQWN0b3I8L3A+PC9zcGFuPjwvZGl2PjwvZm9yZWlnbk9iamVjdD48L2c+PC9nPjxnIHRyYW5zZm9ybT0idHJhbnNsYXRlKDkyMC4xNzE4NzUsIDEyMDEuMTk5OTk2OTQ4MjQyMikiIGlkPSJmbG93Y2hhcnQtUm91dGVyLTIwIiBjbGFzcz0ibm9kZSBkZWZhdWx0IGFjdG9yIj48cmVjdCBoZWlnaHQ9IjU0IiB3aWR0aD0iMTQ1LjM3NSIgeT0iLTI3IiB4PSItNzIuNjg3NSIgc3R5bGU9ImZpbGw6I2Y5ZiAhaW1wb3J0YW50O3N0cm9rZTojMzMzICFpbXBvcnRhbnQ7c3Ryb2tlLXdpZHRoOjJweCAhaW1wb3J0YW50IiBjbGFzcz0iYmFzaWMgbGFiZWwtY29udGFpbmVyIj48L3JlY3Q+PGcgdHJhbnNmb3JtPSJ0cmFuc2xhdGUoLTQyLjY4NzUsIC0xMikiIHN0eWxlPSIiIGNsYXNzPSJsYWJlbCI+PHJlY3Q+PC9yZWN0Pjxmb3JlaWduT2JqZWN0IGhlaWdodD0iMjQiIHdpZHRoPSI4NS4zNzUiPjxkaXYgc3R5bGU9ImRpc3BsYXk6IHRhYmxlLWNlbGw7IHdoaXRlLXNwYWNlOiBub3dyYXA7IGxpbmUtaGVpZ2h0OiAxLjU7IG1heC13aWR0aDogMjAwcHg7IHRleHQtYWxpZ246IGNlbnRlcjsiIHhtbG5zPSJodHRwOi8vd3d3LnczLm9yZy8xOTk5L3hodG1sIj48c3BhbiBjbGFzcz0ibm9kZUxhYmVsIj48cD5Sb3V0ZXJBY3RvcjwvcD48L3NwYW4+PC9kaXY+PC9mb3JlaWduT2JqZWN0PjwvZz48L2c+PGcgdHJhbnNmb3JtPSJ0cmFuc2xhdGUoMzExNy4wOTM3NSwgNjE1KSIgaWQ9ImZsb3djaGFydC1BZ2VudFN5c3RlbS01NyIgY2xhc3M9Im5vZGUgZGVmYXVsdCBhZ2VudCI+PHJlY3QgaGVpZ2h0PSI1NCIgd2lkdGg9IjE0NC41MTU2MjUiIHk9Ii0yNyIgeD0iLTcyLjI1NzgxMjUiIHN0eWxlPSJmaWxsOiNmY2MgIWltcG9ydGFudDtzdHJva2U6IzMzMyAhaW1wb3J0YW50O3N0cm9rZS13aWR0aDoycHggIWltcG9ydGFudCIgY2xhc3M9ImJhc2ljIGxhYmVsLWNvbnRhaW5lciI+PC9yZWN0PjxnIHRyYW5zZm9ybT0idHJhbnNsYXRlKC00Mi4yNTc4MTI1LCAtMTIpIiBzdHlsZT0iIiBjbGFzcz0ibGFiZWwiPjxyZWN0PjwvcmVjdD48Zm9yZWlnbk9iamVjdCBoZWlnaHQ9IjI0IiB3aWR0aD0iODQuNTE1NjI1Ij48ZGl2IHN0eWxlPSJkaXNwbGF5OiB0YWJsZS1jZWxsOyB3aGl0ZS1zcGFjZTogbm93cmFwOyBsaW5lLWhlaWdodDogMS41OyBtYXgtd2lkdGg6IDIwMHB4OyB0ZXh0LWFsaWduOiBjZW50ZXI7IiB4bWxucz0iaHR0cDovL3d3dy53My5vcmcvMTk5OS94aHRtbCI+PHNwYW4gY2xhc3M9Im5vZGVMYWJlbCI+PHA+QWdlbnQgTG9naWM8L3A+PC9zcGFuPjwvZGl2PjwvZm9yZWlnbk9iamVjdD48L2c+PC9nPjwvZz48L2c+PC9nPjwvc3ZnPg==;" vertex="1" parent="1">
            <mxGeometry x="-1920" y="-100" width="3232.3515625" height="1428.800048828125" as="geometry" />
          </mxCell>
        </UserObject>
      </root>
    </mxGraphModel>
  </diagram>
</mxfile>
